<svg width="202" height="36" viewBox="0 0 202 36" fill="none" xmlns="http://www.w3.org/2000/svg">
<path d="M1.57634 22V13.6H4.56434C5.20834 13.6 5.75234 13.696 6.19634 13.888C6.64034 14.08 6.97634 14.376 7.20434 14.776C7.43634 15.176 7.55234 15.688 7.55234 16.312C7.55234 16.944 7.43834 17.466 7.21034 17.878C6.98234 18.286 6.64834 18.59 6.20834 18.79C5.76834 18.986 5.23234 19.084 4.60034 19.084H3.11234V22H1.57634ZM3.11234 17.8H4.42034C4.94434 17.8 5.33634 17.682 5.59634 17.446C5.86034 17.21 5.99234 16.84 5.99234 16.336C5.99234 15.832 5.85834 15.464 5.59034 15.232C5.32634 15 4.92434 14.884 4.38434 14.884H3.11234V17.8ZM11.2802 22.12C10.6282 22.12 10.0722 21.978 9.61216 21.694C9.15216 21.41 8.80016 21.032 8.55616 20.56C8.31616 20.088 8.19616 19.572 8.19616 19.012C8.19616 18.448 8.31616 17.928 8.55616 17.452C8.80016 16.976 9.15216 16.596 9.61216 16.312C10.0722 16.024 10.6282 15.88 11.2802 15.88C11.9322 15.88 12.4882 16.024 12.9482 16.312C13.4082 16.596 13.7582 16.976 13.9982 17.452C14.2422 17.928 14.3642 18.448 14.3642 19.012C14.3642 19.572 14.2422 20.088 13.9982 20.56C13.7582 21.032 13.4082 21.41 12.9482 21.694C12.4882 21.978 11.9322 22.12 11.2802 22.12ZM11.2802 20.896C11.7802 20.896 12.1642 20.722 12.4322 20.374C12.7042 20.022 12.8402 19.568 12.8402 19.012C12.8402 18.448 12.7042 17.99 12.4322 17.638C12.1642 17.282 11.7802 17.104 11.2802 17.104C10.7842 17.104 10.4002 17.282 10.1282 17.638C9.85616 17.99 9.72016 18.448 9.72016 19.012C9.72016 19.568 9.85616 20.022 10.1282 20.374C10.4002 20.722 10.7842 20.896 11.2802 20.896ZM16.7056 22L14.9536 16H16.4056L17.4376 20.188L18.5656 16.12H19.8136L20.9296 20.188L21.9736 16H23.4256L21.6736 22H20.4256L19.1896 18.088L17.9536 22H16.7056ZM27.2583 22.12C26.5343 22.12 25.9303 21.976 25.4463 21.688C24.9663 21.396 24.6063 21.012 24.3663 20.536C24.1263 20.056 24.0063 19.532 24.0063 18.964C24.0063 18.416 24.1183 17.91 24.3423 17.446C24.5703 16.982 24.9023 16.61 25.3383 16.33C25.7743 16.046 26.3063 15.904 26.9343 15.904C27.5103 15.904 27.9903 16.022 28.3743 16.258C28.7583 16.494 29.0463 16.81 29.2383 17.206C29.4303 17.598 29.5263 18.032 29.5263 18.508C29.5263 18.64 29.5183 18.774 29.5023 18.91C29.4863 19.042 29.4623 19.18 29.4303 19.324H25.5543C25.6103 19.696 25.7263 19.998 25.9023 20.23C26.0823 20.458 26.3003 20.626 26.5563 20.734C26.8163 20.842 27.0943 20.896 27.3903 20.896C27.7383 20.896 28.0623 20.852 28.3623 20.764C28.6623 20.672 28.9383 20.552 29.1903 20.404L29.2623 21.664C29.0343 21.784 28.7503 21.89 28.4103 21.982C28.0703 22.074 27.6863 22.12 27.2583 22.12ZM25.5903 18.316H28.0143C28.0143 18.136 27.9803 17.956 27.9123 17.776C27.8443 17.592 27.7303 17.438 27.5703 17.314C27.4143 17.19 27.2023 17.128 26.9343 17.128C26.5503 17.128 26.2483 17.24 26.0283 17.464C25.8083 17.688 25.6623 17.972 25.5903 18.316ZM30.7421 22V16H32.1341L32.1701 16.636C32.3221 16.468 32.5361 16.3 32.8121 16.132C33.0881 15.964 33.3901 15.88 33.7181 15.88C33.8141 15.88 33.9021 15.888 33.9821 15.904L33.8741 17.368C33.7861 17.344 33.6981 17.328 33.6101 17.32C33.5261 17.312 33.4421 17.308 33.3581 17.308C33.1061 17.308 32.8761 17.366 32.6681 17.482C32.4601 17.598 32.3141 17.74 32.2301 17.908V22H30.7421ZM37.6896 22.12C36.9656 22.12 36.3616 21.976 35.8776 21.688C35.3976 21.396 35.0376 21.012 34.7976 20.536C34.5576 20.056 34.4376 19.532 34.4376 18.964C34.4376 18.416 34.5496 17.91 34.7736 17.446C35.0016 16.982 35.3336 16.61 35.7696 16.33C36.2056 16.046 36.7376 15.904 37.3656 15.904C37.9416 15.904 38.4216 16.022 38.8056 16.258C39.1896 16.494 39.4776 16.81 39.6696 17.206C39.8616 17.598 39.9576 18.032 39.9576 18.508C39.9576 18.64 39.9496 18.774 39.9336 18.91C39.9176 19.042 39.8936 19.18 39.8616 19.324H35.9856C36.0416 19.696 36.1576 19.998 36.3336 20.23C36.5136 20.458 36.7316 20.626 36.9876 20.734C37.2476 20.842 37.5256 20.896 37.8216 20.896C38.1696 20.896 38.4936 20.852 38.7936 20.764C39.0936 20.672 39.3696 20.552 39.6216 20.404L39.6936 21.664C39.4656 21.784 39.1816 21.89 38.8416 21.982C38.5016 22.074 38.1176 22.12 37.6896 22.12ZM36.0216 18.316H38.4456C38.4456 18.136 38.4116 17.956 38.3436 17.776C38.2756 17.592 38.1616 17.438 38.0016 17.314C37.8456 17.19 37.6336 17.128 37.3656 17.128C36.9816 17.128 36.6796 17.24 36.4596 17.464C36.2396 17.688 36.0936 17.972 36.0216 18.316ZM43.5973 22.12C42.9893 22.12 42.4773 21.978 42.0613 21.694C41.6493 21.41 41.3373 21.032 41.1253 20.56C40.9173 20.088 40.8133 19.572 40.8133 19.012C40.8133 18.452 40.9173 17.936 41.1253 17.464C41.3373 16.992 41.6493 16.614 42.0613 16.33C42.4773 16.046 42.9893 15.904 43.5973 15.904C44.0373 15.904 44.4093 15.978 44.7133 16.126C45.0173 16.27 45.2853 16.456 45.5173 16.684L45.1573 16.996V13H46.6453V22H45.2413L45.1693 20.98L45.6013 21.292C45.3213 21.548 45.0313 21.75 44.7313 21.898C44.4313 22.046 44.0533 22.12 43.5973 22.12ZM43.8133 20.896C44.1413 20.896 44.4093 20.816 44.6173 20.656C44.8253 20.496 44.9793 20.276 45.0793 19.996C45.1793 19.712 45.2293 19.384 45.2293 19.012C45.2293 18.64 45.1793 18.314 45.0793 18.034C44.9793 17.75 44.8253 17.528 44.6173 17.368C44.4093 17.208 44.1413 17.128 43.8133 17.128C43.5013 17.128 43.2353 17.208 43.0153 17.368C42.7953 17.528 42.6273 17.75 42.5113 18.034C42.3953 18.314 42.3373 18.64 42.3373 19.012C42.3373 19.384 42.3953 19.712 42.5113 19.996C42.6273 20.276 42.7953 20.496 43.0153 20.656C43.2353 20.816 43.5013 20.896 43.8133 20.896ZM54.2441 22.12C53.7881 22.12 53.3941 22.046 53.0621 21.898C52.7301 21.75 52.4201 21.548 52.1321 21.292L52.5761 20.98L52.5041 22H51.1121V13H52.6001V16.996L52.2401 16.768C52.5041 16.496 52.7981 16.284 53.1221 16.132C53.4501 15.98 53.8241 15.904 54.2441 15.904C54.8321 15.904 55.3261 16.046 55.7261 16.33C56.1261 16.614 56.4281 16.992 56.6321 17.464C56.8401 17.936 56.9441 18.452 56.9441 19.012C56.9441 19.572 56.8401 20.088 56.6321 20.56C56.4281 21.032 56.1261 21.41 55.7261 21.694C55.3261 21.978 54.8321 22.12 54.2441 22.12ZM54.0281 20.896C54.3241 20.896 54.5761 20.816 54.7841 20.656C54.9921 20.496 55.1501 20.276 55.2581 19.996C55.3661 19.712 55.4201 19.384 55.4201 19.012C55.4201 18.64 55.3661 18.314 55.2581 18.034C55.1501 17.75 54.9921 17.528 54.7841 17.368C54.5761 17.208 54.3241 17.128 54.0281 17.128C53.6801 17.128 53.3961 17.208 53.1761 17.368C52.9561 17.528 52.7921 17.75 52.6841 18.034C52.5801 18.314 52.5281 18.64 52.5281 19.012C52.5281 19.384 52.5801 19.712 52.6841 19.996C52.7921 20.276 52.9561 20.496 53.1761 20.656C53.3961 20.816 53.6801 20.896 54.0281 20.896ZM58.5307 24.904L59.8627 21.604L57.3667 16H59.0227L60.5587 19.864L62.1187 16H63.7747L60.0187 24.904H58.5307Z" fill="black"/>
<g clip-path="url(#clip0_217_2652)">
<path d="M78.2106 22.7834C74.5146 20.4365 73.9645 15.5145 76.6654 12.2092C77.3963 11.3167 87.1725 1.88918 87.1725 1.89836L85.0525 0L80.04 4.899C76.0118 8.83504 69.6597 14.2515 72.869 20.611C75.488 25.8024 81.4832 28.5214 86.8742 25.5789C87.9781 24.9568 88.9904 24.1871 89.8827 23.2917L86.97 22.2522C84.4422 24.0526 80.876 24.4736 78.2106 22.7834Z" fill="url(#paint0_linear_217_2652)"/>
<path d="M77.9954 16.188C77.8515 17.0153 77.9623 17.8663 78.3133 18.6304C78.6643 19.3944 79.2394 20.036 79.9636 20.4718C80.6878 20.9075 81.5276 21.1172 82.3737 21.0734C83.2198 21.0297 84.033 20.7347 84.7075 20.2267C85.749 19.4428 86.4567 18.1629 87.7051 17.7772C88.0899 17.6562 88.5426 17.6424 88.8702 17.8782C89.0629 18.0297 89.2024 18.2375 89.2688 18.4722C89.5037 19.2377 89.1344 20.0582 88.64 20.689L88.5473 20.8023L91.2049 21.7499C91.5963 21.211 91.9084 20.6198 92.132 19.9939C92.7331 18.1982 91.5541 16.1008 89.9039 15.2986C88.2212 14.4795 86.041 14.8883 84.7199 16.2171C84.2332 16.707 83.8531 17.3041 83.3076 17.7282C82.7622 18.1522 81.9479 18.362 81.3793 17.9685C80.327 17.2398 81.0703 15.9109 81.7084 15.1975L81.8629 15.0245L78.9735 13.9942C78.4907 14.6465 78.1569 15.3951 77.9954 16.188Z" fill="url(#paint1_linear_217_2652)"/>
<path d="M94.0414 11.3105C89.8062 8.08483 83.9748 8.9146 80.3081 12.4388L83.5529 13.5977C85.0409 12.6241 86.7977 12.076 88.5793 12.1755C92.1332 12.3761 94.9608 15.3905 95.1292 18.8856C95.2281 20.911 94.4478 22.5109 93.085 23.9377C91.2123 25.9065 89.2968 27.8344 87.3386 29.7216C86.9739 30.0706 82.8885 33.8551 82.9318 33.8964L85.0502 35.9938C87.2752 33.8245 89.5002 31.6215 91.7639 29.4782C94.3566 27.0133 97.671 24.0694 98.014 20.3323C98.3231 16.9658 96.7532 13.3712 94.0414 11.3105Z" fill="url(#paint2_linear_217_2652)"/>
<path d="M116.326 20.3034C116.132 19.994 115.889 19.7188 115.604 19.4889C115.311 19.2379 115.001 19.0062 114.677 18.7954C114.321 18.5831 113.948 18.4027 113.56 18.2565C113.048 18.0529 112.642 17.8998 112.353 17.8049C112.064 17.71 111.613 17.5661 111.03 17.3854C109.53 16.9262 108.527 16.5051 107.968 16.0918C107.662 15.8806 107.413 15.5981 107.243 15.2692C107.073 14.9403 106.988 14.5751 106.994 14.2057C106.988 13.8587 107.065 13.5153 107.219 13.2034C107.372 12.8915 107.598 12.6202 107.878 12.4114C108.424 11.9812 109.161 11.7623 110.071 11.7623C111.786 11.7623 113.098 12.5171 113.972 14.0067L116.222 12.7176C115.662 11.7111 114.86 10.8571 113.887 10.2314C112.745 9.52238 111.418 9.15899 110.071 9.18573C108.468 9.18573 107.082 9.66185 105.951 10.5988C104.82 11.5357 104.29 12.7421 104.29 14.3144C104.273 15.0223 104.415 15.7251 104.706 16.372C104.973 16.9368 105.383 17.4243 105.894 17.7881C106.418 18.1686 106.982 18.4915 107.577 18.751C108.271 19.0385 108.98 19.2859 109.703 19.492C111.318 19.9513 112.422 20.36 113.078 20.7627C113.413 20.9582 113.694 21.2329 113.896 21.5622C114.098 21.8914 114.215 22.2651 114.236 22.65C114.257 23.0348 114.181 23.4187 114.016 23.7677C113.851 24.1166 113.601 24.4196 113.289 24.6497C112.69 25.109 111.817 25.3356 110.621 25.3356C108.414 25.3356 106.843 24.4323 105.945 22.6519L103.627 23.9945C104.124 25.1284 104.948 26.091 105.996 26.7609C107.201 27.5432 108.72 27.9397 110.511 27.9397C112.444 27.9397 114.028 27.4575 115.215 26.5068C116.401 25.5561 116.951 24.3344 116.951 22.7284C116.957 21.8799 116.741 21.0444 116.324 20.3034H116.326Z" fill="#021A70"/>
<path d="M120.222 19.1506V14.7109H117.303V19.0266C117.303 21.7073 119.522 25.6724 124.286 25.6724C125.425 25.6718 126.549 25.4098 127.569 24.9069L128.353 24.5181V26.7456C128.353 28.7098 126.718 30.8148 124.286 30.8148C123.586 30.812 122.899 30.6313 122.291 30.2901C121.682 29.9488 121.172 29.4585 120.809 28.8659V28.8537H117.694C118.181 30.1987 119.078 31.3602 120.261 32.1769C121.444 32.9937 122.855 33.4251 124.297 33.4113C129.053 33.4113 131.25 29.5212 131.278 26.7578V14.7185H128.363V18.996C128.363 20.9862 126.818 23.1433 124.335 23.1433C123.259 23.1408 122.227 22.7219 121.459 21.976C120.69 21.23 120.247 20.2162 120.222 19.1506Z" fill="#021A70"/>
<path d="M138.732 14.7185C134.262 14.7185 132.18 18.4295 132.18 20.9372V28.0101H135.094V20.9372C135.094 19.1965 136.556 17.3349 138.732 17.3349C140.882 17.3349 142.329 19.1965 142.329 20.9372C142.355 22.5523 142.346 24.2287 142.338 25.7091C142.338 26.4746 142.329 27.2401 142.329 28.0055H145.243V20.9326C145.243 18.4295 143.174 14.7185 138.732 14.7185Z" fill="#021A70"/>
<path d="M152.979 25.4717C150.467 25.4717 148.912 23.3391 148.912 21.3642C148.912 19.3893 150.467 17.2567 152.979 17.2567C153.688 17.2558 154.385 17.4419 154.998 17.796C155.61 18.1501 156.117 18.6593 156.465 19.2714L156.497 19.3235L158.979 17.9456C158.33 16.9549 157.441 16.1413 156.393 15.5796C155.345 15.0178 154.171 14.7259 152.979 14.7306C148.217 14.7306 145.998 18.6958 145.998 21.3764C145.998 24.0571 148.217 28.0222 152.979 28.0222C154.176 28.0259 155.354 27.7288 156.403 27.1588C157.452 26.5888 158.339 25.7645 158.979 24.7629L156.507 23.385L156.46 23.4646C156.102 24.0664 155.594 24.5669 154.984 24.9183C154.374 25.2697 153.684 25.4602 152.979 25.4717Z" fill="#021A70"/>
<path d="M171.528 12.2201C171.012 11.3191 170.266 10.5688 169.365 10.0449C168.463 9.52101 167.438 9.24208 166.393 9.2363H159.988V28.0194H161.447V21.173H166.391C167.435 21.1679 168.458 20.8903 169.358 20.3683C170.259 19.8464 171.004 19.0984 171.52 18.1999C172.07 17.2981 172.361 16.2648 172.363 15.2111C172.364 14.1574 172.075 13.1233 171.528 12.2201ZM166.291 19.7217H161.447V10.6815H166.285C167.481 10.7033 168.621 11.1894 169.459 12.0353C170.297 12.8812 170.767 14.0193 170.767 15.2047C170.767 16.3901 170.297 17.5281 169.459 18.374C168.621 19.2199 167.481 19.706 166.285 19.7278L166.291 19.7217Z" fill="#021A70"/>
<path d="M176.554 16.8311C175.437 16.8311 174.345 17.1591 173.417 17.7738C172.488 18.3885 171.765 19.2622 171.337 20.2843C170.91 21.3065 170.798 22.4313 171.016 23.5164C171.234 24.6016 171.772 25.5983 172.561 26.3807C173.351 27.163 174.357 27.6958 175.452 27.9117C176.547 28.1275 177.683 28.0167 178.714 27.5933C179.746 27.1699 180.628 26.4529 181.248 25.533C181.869 24.613 182.2 23.5315 182.2 22.4251C182.198 20.942 181.603 19.52 180.544 18.4713C179.486 17.4226 178.051 16.8327 176.554 16.8311ZM176.554 26.6689C175.702 26.6786 174.866 26.4357 174.154 25.9712C173.443 25.5068 172.887 24.8421 172.56 24.0625C172.232 23.283 172.148 22.4242 172.317 21.5966C172.486 20.7691 172.901 20.0105 173.508 19.4183C173.898 19.0195 174.366 18.704 174.884 18.4913C175.402 18.2785 175.958 18.1731 176.518 18.1813C177.081 18.179 177.638 18.2865 178.159 18.4976C178.679 18.7088 179.153 19.0194 179.552 19.4119C179.951 19.8043 180.269 20.2708 180.486 20.7848C180.704 21.2988 180.817 21.8502 180.819 22.4075C180.821 22.9648 180.713 23.5171 180.5 24.0329C180.287 24.5486 179.973 25.0177 179.577 25.4134C179.181 25.8091 178.71 26.1237 178.191 26.3391C177.673 26.5545 177.116 26.6665 176.554 26.6689Z" fill="#021A70"/>
<path d="M184.716 16.8325H183.354V28.0206H184.716V16.8325Z" fill="#021A70"/>
<path d="M184.716 13.6268H183.354V16.1161H184.716V13.6268Z" fill="#2AF2C3"/>
<path d="M191.131 16.8311C189.741 16.8392 188.411 17.3926 187.432 18.3702C186.453 19.3478 185.905 20.6699 185.908 22.047V28.0176H187.271V22.047C187.29 21.0396 187.707 20.0798 188.432 19.3735C189.157 18.6672 190.133 18.2708 191.149 18.2694C192.166 18.268 193.143 18.6617 193.87 19.366C194.597 20.0703 195.017 21.029 195.039 22.0362V28.0191H196.4V22.0485C196.399 20.6645 195.844 19.3374 194.855 18.359C193.867 17.3806 192.528 16.8311 191.131 16.8311Z" fill="#021A70"/>
<path d="M200.725 26.7485C199.62 26.7485 199.068 26.2214 199.069 25.1671V18.7371H201.379V17.491H199.069V14.7812L197.576 14.922L197.503 17.4955V24.9099C197.503 26.9777 198.502 28.0121 200.499 28.0131C200.992 28.0077 201.484 27.9704 201.972 27.9013V26.646C201.56 26.7125 201.143 26.7467 200.725 26.7485Z" fill="#021A70"/>
<path d="M133.24 33.428C133 33.4354 132.763 33.372 132.559 33.2458C132.378 33.1302 132.244 32.9551 132.18 32.7513L132.37 32.6411C132.418 32.8115 132.524 32.9603 132.67 33.0621C132.839 33.1712 133.039 33.2247 133.24 33.2152C133.433 33.2293 133.624 33.1751 133.779 33.0621C133.84 33.0115 133.889 32.9479 133.922 32.876C133.954 32.8042 133.97 32.726 133.968 32.6472C133.972 32.5761 133.957 32.5052 133.925 32.4414C133.893 32.3776 133.845 32.323 133.786 32.2829C133.61 32.1726 133.419 32.088 133.219 32.0318L133.015 31.9583L132.831 31.8925C132.769 31.8719 132.709 31.8447 132.653 31.8113C132.605 31.7811 132.559 31.7483 132.514 31.7134C132.466 31.6796 132.426 31.6369 132.395 31.5878C132.368 31.5392 132.346 31.4879 132.33 31.4347C132.31 31.3719 132.3 31.3063 132.301 31.2403C132.297 31.1342 132.317 31.0286 132.361 30.9315C132.404 30.8345 132.469 30.7484 132.551 30.68C132.724 30.5375 132.944 30.4624 133.169 30.4687C133.375 30.4628 133.578 30.5217 133.749 30.6371C133.906 30.7452 134.028 30.8962 134.101 31.0719L133.914 31.1745C133.861 31.023 133.759 30.8926 133.625 30.8032C133.491 30.7137 133.331 30.6699 133.169 30.6784C132.997 30.669 132.827 30.7236 132.693 30.8315C132.636 30.8806 132.59 30.9416 132.56 31.0101C132.529 31.0787 132.514 31.1531 132.515 31.228C132.511 31.2953 132.524 31.3627 132.553 31.4237C132.582 31.4848 132.626 31.5376 132.681 31.5771C132.85 31.6794 133.033 31.7592 133.223 31.8144L133.597 31.9522C133.699 31.9936 133.796 32.0449 133.888 32.1053C133.982 32.1603 134.06 32.2396 134.113 32.3349C134.161 32.4299 134.185 32.5349 134.184 32.6411C134.188 32.7497 134.166 32.8578 134.121 32.9568C134.076 33.0558 134.008 33.1432 133.923 33.2121C133.728 33.3617 133.486 33.4381 133.24 33.428Z" fill="#021A70"/>
<path d="M136.09 31.3321H136.309L135.416 33.5703C135.347 33.7565 135.23 33.9214 135.076 34.048C134.943 34.1596 134.771 34.2146 134.597 34.2011V34.0097C134.661 34.0152 134.726 34.008 134.787 33.9886C134.848 33.9691 134.905 33.9378 134.954 33.8964C135.07 33.798 135.159 33.6721 135.212 33.5305L135.257 33.4172L134.307 31.3321H134.531L135.364 33.1508L136.09 31.3321Z" fill="#021A70"/>
<path d="M137.604 31.2877C137.712 31.2822 137.82 31.2993 137.92 31.3378C138.021 31.3763 138.113 31.4354 138.189 31.5112C138.264 31.5914 138.321 31.6855 138.359 31.788C138.396 31.8905 138.413 31.9994 138.407 32.1082V33.382H138.195V32.1082C138.207 31.9409 138.152 31.7758 138.041 31.649C137.982 31.5913 137.912 31.5465 137.835 31.5175C137.758 31.4885 137.675 31.4759 137.593 31.4806C137.496 31.4774 137.399 31.4944 137.309 31.5305C137.219 31.5667 137.138 31.6211 137.071 31.6903C136.924 31.8598 136.851 32.08 136.868 32.3027V33.385H136.661V31.3321H136.868V31.7224C136.934 31.5862 137.039 31.4722 137.17 31.3948C137.3 31.3175 137.451 31.2802 137.604 31.2877Z" fill="#021A70"/>
<path d="M139.909 33.4281C139.622 33.4281 139.347 33.3152 139.144 33.1142C138.942 32.9132 138.828 32.6406 138.828 32.3564C138.828 32.0722 138.942 31.7996 139.144 31.5986C139.347 31.3977 139.622 31.2847 139.909 31.2847C140.101 31.2824 140.289 31.3311 140.455 31.4256C140.611 31.5138 140.736 31.6481 140.812 31.8099L140.642 31.9078C140.579 31.7788 140.478 31.6719 140.353 31.6017C140.218 31.5246 140.065 31.485 139.909 31.4868C139.794 31.4851 139.68 31.5066 139.574 31.55C139.468 31.5934 139.371 31.6579 139.291 31.7394C139.13 31.9065 139.039 32.1289 139.039 32.3602C139.039 32.5916 139.13 32.814 139.291 32.981C139.43 33.1154 139.61 33.2015 139.803 33.2263C139.995 33.2512 140.191 33.2134 140.36 33.1188C140.488 33.0467 140.592 32.9406 140.662 32.8126L140.835 32.9152C140.751 33.0744 140.622 33.2059 140.464 33.2933C140.295 33.3875 140.103 33.4341 139.909 33.4281Z" fill="#021A70"/>
<path d="M141.473 30.7903C141.442 30.82 141.4 30.8365 141.357 30.8362C141.335 30.8364 141.313 30.8323 141.293 30.8242C141.273 30.816 141.255 30.804 141.239 30.7887C141.224 30.7735 141.212 30.7553 141.204 30.7354C141.195 30.7154 141.191 30.694 141.191 30.6724C141.191 30.6514 141.196 30.6307 141.204 30.6114C141.213 30.5922 141.225 30.5749 141.241 30.5607C141.256 30.5452 141.274 30.5329 141.294 30.5248C141.314 30.5166 141.335 30.5127 141.357 30.5132C141.378 30.5127 141.4 30.5166 141.42 30.5248C141.44 30.5329 141.458 30.5452 141.473 30.5607C141.488 30.5749 141.501 30.5922 141.509 30.6114C141.518 30.6307 141.522 30.6514 141.522 30.6724C141.523 30.6944 141.519 30.7164 141.51 30.7367C141.502 30.7571 141.489 30.7753 141.473 30.7903ZM141.253 33.3822V31.3323H141.46V33.3822H141.253Z" fill="#021A70"/>
<path d="M143.016 31.2877C143.124 31.2825 143.232 31.2997 143.332 31.3382C143.433 31.3767 143.524 31.4356 143.6 31.5112C143.675 31.5915 143.732 31.6856 143.77 31.7881C143.807 31.8906 143.824 31.9994 143.818 32.1083V33.382H143.607V32.1083C143.618 31.941 143.563 31.7759 143.452 31.649C143.394 31.5911 143.324 31.5462 143.246 31.5172C143.169 31.4881 143.086 31.4757 143.004 31.4806C142.907 31.4774 142.81 31.4944 142.72 31.5306C142.63 31.5667 142.549 31.6211 142.482 31.6903C142.335 31.8599 142.262 32.0801 142.279 32.3027V33.3851H142.072V31.3321H142.279V31.7225C142.345 31.586 142.45 31.4718 142.581 31.3944C142.713 31.3171 142.864 31.2799 143.016 31.2877Z" fill="#021A70"/>
<path d="M146.209 31.3321H146.417V33.2841C146.424 33.4158 146.401 33.5473 146.35 33.669C146.299 33.7908 146.221 33.8999 146.122 33.9883C145.919 34.1641 145.656 34.2566 145.387 34.247C145.176 34.2535 144.967 34.2083 144.778 34.1154C144.619 34.0378 144.491 33.9116 144.41 33.7556L144.593 33.653C144.724 33.9179 144.99 34.0511 145.387 34.0511C145.608 34.0638 145.825 33.9889 145.991 33.8429C146.065 33.77 146.122 33.6826 146.16 33.5863C146.197 33.4901 146.214 33.3871 146.209 33.2841V32.9075C146.126 33.0654 146.001 33.1975 145.847 33.2887C145.688 33.3821 145.506 33.4302 145.32 33.428C145.179 33.4308 145.04 33.4052 144.909 33.3525C144.779 33.2999 144.66 33.2213 144.562 33.1218C144.361 32.9186 144.248 32.6454 144.248 32.3609C144.248 32.0764 144.361 31.8032 144.562 31.6C144.66 31.5002 144.778 31.4216 144.909 31.3689C145.039 31.3162 145.179 31.2907 145.32 31.2938C145.506 31.2908 145.688 31.3391 145.847 31.4332C146.001 31.5244 146.126 31.6564 146.209 31.8144V31.3321ZM144.71 32.9763C144.876 33.1392 145.099 33.2306 145.333 33.2306C145.566 33.2306 145.79 33.1392 145.955 32.9763C146.078 32.8545 146.161 32.6995 146.194 32.531C146.227 32.3625 146.21 32.188 146.143 32.0294C146.076 31.8709 145.964 31.7354 145.82 31.6401C145.675 31.5448 145.506 31.494 145.333 31.494C145.159 31.494 144.99 31.5448 144.846 31.6401C144.702 31.7354 144.589 31.8709 144.522 32.0294C144.456 32.188 144.438 32.3625 144.471 32.531C144.505 32.6995 144.588 32.8545 144.71 32.9763Z" fill="#021A70"/>
<path d="M148.455 33.4282C148.215 33.4353 147.978 33.3719 147.774 33.246C147.593 33.1303 147.459 32.9553 147.396 32.7515L147.587 32.6413C147.634 32.8121 147.74 32.9611 147.887 33.0623C148.055 33.1714 148.254 33.225 148.455 33.2154C148.648 33.2298 148.839 33.1755 148.995 33.0623C149.056 33.0116 149.104 32.948 149.137 32.8762C149.17 32.8043 149.185 32.7261 149.183 32.6474C149.187 32.5763 149.172 32.5054 149.14 32.4415C149.108 32.3777 149.06 32.3231 149.001 32.283C148.825 32.1727 148.634 32.0882 148.434 32.0319L148.231 31.9585L148.046 31.8926C147.984 31.8718 147.925 31.8446 147.868 31.8115C147.83 31.787 147.783 31.7548 147.729 31.7135C147.682 31.6797 147.642 31.6371 147.612 31.588C147.584 31.5395 147.562 31.4881 147.545 31.4349C147.525 31.3721 147.515 31.3064 147.516 31.2405C147.512 31.1344 147.533 31.0288 147.576 30.9317C147.619 30.8346 147.684 30.7486 147.766 30.6801C147.942 30.5355 148.165 30.4603 148.394 30.4689C148.6 30.4633 148.803 30.5223 148.973 30.6373C149.13 30.7458 149.252 30.8967 149.324 31.072L149.138 31.1746C149.085 31.0231 148.984 30.8928 148.85 30.8033C148.715 30.7138 148.555 30.6701 148.394 30.6786C148.221 30.6689 148.052 30.7235 147.918 30.8317C147.86 30.8805 147.814 30.9414 147.784 31.01C147.753 31.0786 147.738 31.1532 147.74 31.2282C147.736 31.2955 147.748 31.3628 147.777 31.4239C147.806 31.4849 147.85 31.5377 147.905 31.5773C148.075 31.6801 148.257 31.76 148.448 31.8146L148.82 31.9523C148.922 31.9935 149.019 32.0447 149.111 32.1054C149.205 32.1604 149.283 32.2398 149.336 32.3351C149.385 32.4298 149.409 32.535 149.407 32.6413C149.411 32.75 149.39 32.8581 149.344 32.9572C149.299 33.0562 149.231 33.1436 149.146 33.2123C148.949 33.3639 148.704 33.4405 148.455 33.4282Z" fill="#021A70"/>
<path d="M151.363 31.3321H151.57V33.382H151.363V32.9993C151.297 33.1363 151.191 33.2508 151.06 33.3282C150.928 33.4056 150.776 33.4425 150.623 33.4341C150.515 33.4395 150.407 33.4224 150.306 33.3839C150.205 33.3454 150.114 33.2863 150.037 33.2106C149.963 33.1303 149.905 33.0362 149.868 32.9337C149.83 32.8312 149.814 32.7223 149.819 32.6135V31.3382H150.031V32.6135C150.019 32.7808 150.075 32.9459 150.186 33.0728C150.244 33.1307 150.314 33.1757 150.391 33.2047C150.469 33.2338 150.551 33.2462 150.634 33.2412C150.731 33.2448 150.827 33.2281 150.917 33.1922C151.007 33.1563 151.089 33.1021 151.156 33.033C151.302 32.8632 151.375 32.6431 151.358 32.4206L151.363 31.3321Z" fill="#021A70"/>
<path d="M153.126 33.4281C152.839 33.4281 152.564 33.3152 152.361 33.1142C152.158 32.9132 152.044 32.6406 152.044 32.3564C152.044 32.0722 152.158 31.7996 152.361 31.5986C152.564 31.3977 152.839 31.2847 153.126 31.2847C153.317 31.2824 153.505 31.3311 153.671 31.4256C153.828 31.5133 153.953 31.6478 154.028 31.8099L153.858 31.9078C153.796 31.7788 153.695 31.6719 153.569 31.6017C153.434 31.5246 153.281 31.485 153.126 31.4868C153.011 31.4848 152.896 31.5062 152.79 31.5496C152.684 31.5931 152.588 31.6577 152.507 31.7394C152.345 31.9059 152.254 32.1285 152.254 32.3602C152.254 32.5919 152.345 32.8146 152.507 32.981C152.588 33.0628 152.684 33.1274 152.79 33.1708C152.896 33.2143 153.011 33.2357 153.126 33.2336C153.281 33.2362 153.435 33.1965 153.569 33.1188C153.699 33.0479 153.806 32.9417 153.878 32.8126L154.051 32.9152C153.968 33.0748 153.839 33.2063 153.68 33.2933C153.511 33.3875 153.319 33.4341 153.126 33.4281Z" fill="#021A70"/>
<path d="M155.398 33.4281C155.111 33.4281 154.836 33.3152 154.633 33.1142C154.43 32.9132 154.316 32.6406 154.316 32.3564C154.316 32.0722 154.43 31.7996 154.633 31.5986C154.836 31.3977 155.111 31.2847 155.398 31.2847C155.589 31.2824 155.777 31.3311 155.943 31.4256C156.1 31.5133 156.225 31.6478 156.3 31.8099L156.13 31.9078C156.068 31.7792 155.968 31.6724 155.843 31.6017C155.707 31.5248 155.554 31.4852 155.398 31.4868C155.283 31.4848 155.168 31.5062 155.062 31.5496C154.956 31.5931 154.86 31.6577 154.779 31.7394C154.617 31.9059 154.526 32.1285 154.526 32.3602C154.526 32.5919 154.617 32.8146 154.779 32.981C154.86 33.0628 154.956 33.1274 155.062 33.1708C155.168 33.2143 155.283 33.2357 155.398 33.2336C155.554 33.2361 155.707 33.1964 155.843 33.1188C155.969 33.0462 156.073 32.9402 156.142 32.8126L156.315 32.9152C156.232 33.0748 156.103 33.2063 155.944 33.2933C155.778 33.3862 155.589 33.4327 155.398 33.4281Z" fill="#021A70"/>
<path d="M157.652 31.2876C157.792 31.2834 157.93 31.3099 158.058 31.3652C158.186 31.4206 158.299 31.5033 158.391 31.6075C158.58 31.818 158.681 32.0916 158.674 32.373C158.674 32.3837 158.674 32.4006 158.674 32.422C158.674 32.4434 158.674 32.4603 158.674 32.471H156.801C156.818 32.6849 156.917 32.8841 157.079 33.0267C157.222 33.1419 157.396 33.2134 157.579 33.2327C157.762 33.252 157.947 33.2182 158.111 33.1354C158.229 33.0737 158.327 32.9796 158.392 32.8644L158.575 32.9716C158.488 33.1156 158.362 33.2328 158.212 33.31C158.045 33.3953 157.86 33.4384 157.672 33.4355C157.528 33.4395 157.384 33.4145 157.25 33.3618C157.115 33.3092 156.993 33.2301 156.891 33.1293C156.789 33.0294 156.709 32.9099 156.656 32.7783C156.603 32.6466 156.578 32.5056 156.582 32.3638C156.577 32.2229 156.602 32.0825 156.653 31.9511C156.705 31.8196 156.782 31.6997 156.881 31.5984C156.981 31.4963 157.101 31.4159 157.234 31.3624C157.366 31.3089 157.509 31.2834 157.652 31.2876ZM157.652 31.4835C157.435 31.4771 157.225 31.5552 157.065 31.7009C156.907 31.8477 156.811 32.0485 156.796 32.2628H158.459C158.449 32.0459 158.355 31.8412 158.196 31.6917C158.049 31.5555 157.854 31.4809 157.652 31.4835Z" fill="#021A70"/>
<path d="M159.186 31.8634C159.185 31.9103 159.196 31.9567 159.219 31.9978C159.242 32.0389 159.275 32.0734 159.315 32.0976C159.411 32.1577 159.515 32.2021 159.624 32.2293L159.994 32.3257C160.111 32.3562 160.218 32.4175 160.303 32.5033C160.346 32.5491 160.379 32.6028 160.401 32.6614C160.422 32.72 160.432 32.7823 160.429 32.8447C160.431 32.9255 160.413 33.0056 160.378 33.0783C160.342 33.1509 160.289 33.2141 160.224 33.2627C160.07 33.3786 159.881 33.4371 159.688 33.428C159.512 33.433 159.338 33.3896 159.186 33.3025C159.056 33.2274 158.956 33.1107 158.903 32.9718L159.081 32.8708C159.119 32.9817 159.196 33.0753 159.298 33.1341C159.417 33.2015 159.551 33.2349 159.688 33.2305C159.823 33.2359 159.956 33.2007 160.071 33.1295C160.12 33.1 160.16 33.0583 160.187 33.0085C160.214 32.9588 160.227 32.9028 160.225 32.8463C160.227 32.7985 160.215 32.7512 160.193 32.7089C160.171 32.6666 160.138 32.6306 160.097 32.6044C160.004 32.5397 159.899 32.4925 159.788 32.4651L159.417 32.3686C159.301 32.3386 159.195 32.2796 159.108 32.1971C159.065 32.1543 159.032 32.103 159.01 32.0466C158.988 31.9901 158.979 31.9299 158.982 31.8695C158.981 31.7904 158.998 31.7121 159.032 31.6405C159.066 31.5689 159.116 31.5059 159.178 31.4562C159.32 31.3402 159.501 31.2803 159.685 31.2878C159.836 31.2843 159.986 31.3225 160.117 31.398C160.237 31.4702 160.331 31.577 160.388 31.7042L160.215 31.8022C160.174 31.7035 160.101 31.6218 160.006 31.571C159.908 31.5165 159.797 31.4885 159.685 31.4899C159.558 31.4856 159.434 31.5222 159.331 31.594C159.286 31.6234 159.249 31.6635 159.224 31.7105C159.199 31.7575 159.185 31.8101 159.186 31.8634Z" fill="#021A70"/>
<path d="M160.927 31.8634C160.926 31.9104 160.938 31.9567 160.96 31.9979C160.983 32.039 161.016 32.0734 161.057 32.0977C161.152 32.1576 161.257 32.202 161.366 32.2293L161.737 32.3258C161.854 32.3562 161.961 32.4176 162.046 32.5034C162.089 32.5491 162.122 32.6029 162.144 32.6615C162.166 32.7201 162.175 32.7824 162.173 32.8448C162.174 32.9256 162.156 33.0056 162.121 33.0783C162.085 33.151 162.032 33.2142 161.967 33.2627C161.814 33.3786 161.624 33.4371 161.431 33.4281C161.255 33.4333 161.081 33.3899 160.929 33.3025C160.799 33.2275 160.699 33.1108 160.646 32.9718L160.824 32.8708C160.862 32.9818 160.939 33.0753 161.042 33.1341C161.16 33.2018 161.295 33.2352 161.431 33.2306C161.566 33.2359 161.7 33.2007 161.814 33.1295C161.863 33.1001 161.903 33.0583 161.93 33.0086C161.957 32.9588 161.97 32.9028 161.969 32.8463C161.97 32.7985 161.959 32.7512 161.936 32.7089C161.914 32.6666 161.881 32.6306 161.84 32.6044C161.747 32.54 161.642 32.4928 161.531 32.4651L161.161 32.3687C161.044 32.3387 160.938 32.2797 160.851 32.1972C160.809 32.1543 160.775 32.103 160.753 32.0466C160.732 31.9902 160.722 31.9299 160.725 31.8696C160.724 31.7905 160.741 31.7122 160.775 31.6406C160.809 31.569 160.859 31.5059 160.921 31.4562C161.063 31.34 161.244 31.28 161.428 31.2878C161.58 31.2844 161.729 31.3225 161.86 31.398C161.98 31.4702 162.075 31.5771 162.131 31.7042L161.958 31.8022C161.917 31.7035 161.844 31.6218 161.749 31.571C161.651 31.5167 161.54 31.4888 161.428 31.4899C161.302 31.4857 161.177 31.5222 161.074 31.594C161.029 31.6233 160.992 31.6633 160.966 31.7103C160.941 31.7573 160.927 31.81 160.927 31.8634Z" fill="#021A70"/>
<path d="M162.965 33.1033L162.741 33.9561H162.551L162.705 33.1033H162.965Z" fill="#021A70"/>
<path d="M166.439 32.9995C166.194 33.2449 165.871 33.3985 165.525 33.434C165.178 33.4696 164.83 33.385 164.54 33.1945C164.249 33.0041 164.035 32.7197 163.933 32.39C163.83 32.0602 163.847 31.7054 163.979 31.3863C164.111 31.0672 164.351 30.8035 164.658 30.6402C164.965 30.4769 165.319 30.4242 165.661 30.491C166.002 30.5578 166.31 30.74 166.531 31.0066C166.752 31.2731 166.873 31.6074 166.873 31.9524C166.876 32.147 166.84 32.3402 166.765 32.5203C166.69 32.7003 166.579 32.8634 166.439 32.9995ZM164.475 32.8465C164.715 33.0837 165.04 33.217 165.379 33.217C165.718 33.217 166.043 33.0837 166.283 32.8465C166.521 32.6061 166.654 32.2829 166.654 31.9463C166.654 31.6097 166.521 31.2865 166.283 31.0461C166.043 30.8088 165.718 30.6755 165.379 30.6755C165.04 30.6755 164.715 30.8088 164.475 31.0461C164.237 31.2865 164.104 31.6097 164.104 31.9463C164.104 32.2829 164.237 32.6061 164.475 32.8465Z" fill="#021A70"/>
<path d="M168.304 31.2877C168.412 31.2822 168.52 31.2993 168.621 31.3378C168.721 31.3763 168.813 31.4354 168.889 31.5112C168.963 31.5917 169.021 31.6859 169.058 31.7883C169.095 31.8908 169.111 31.9995 169.106 32.1082V33.382H168.896V32.1082C168.907 31.941 168.851 31.7763 168.741 31.649C168.682 31.5911 168.612 31.5462 168.534 31.5172C168.457 31.4882 168.374 31.4757 168.292 31.4806C168.195 31.4774 168.098 31.4944 168.009 31.5306C167.919 31.5667 167.838 31.6211 167.771 31.6903C167.698 31.7741 167.642 31.8713 167.608 31.9764C167.573 32.0815 167.56 32.1924 167.568 32.3027V33.385H167.361V31.3321H167.568V31.7224C167.634 31.5862 167.739 31.4722 167.87 31.3948C168.001 31.3175 168.152 31.2802 168.304 31.2877Z" fill="#021A70"/>
<path d="M170.592 31.2876C170.731 31.2834 170.87 31.3099 170.997 31.3653C171.125 31.4206 171.239 31.5033 171.33 31.6076C171.519 31.818 171.62 32.0916 171.613 32.373C171.613 32.3837 171.613 32.4006 171.613 32.422C171.613 32.4435 171.613 32.4603 171.613 32.471H169.739C169.756 32.6851 169.856 32.8842 170.019 33.0267C170.161 33.1419 170.335 33.2135 170.518 33.2328C170.702 33.2521 170.886 33.2183 171.051 33.1354C171.169 33.0737 171.266 32.9797 171.332 32.8645L171.514 32.9716C171.427 33.1161 171.301 33.2333 171.15 33.31C170.984 33.3955 170.799 33.4387 170.612 33.4355C170.467 33.4397 170.324 33.4148 170.189 33.3621C170.055 33.3095 169.933 33.2303 169.83 33.1293C169.728 33.0294 169.649 32.9099 169.595 32.7783C169.542 32.6466 169.517 32.5056 169.521 32.3638C169.517 32.2229 169.541 32.0825 169.593 31.9511C169.644 31.8196 169.722 31.6997 169.821 31.5984C169.92 31.4962 170.04 31.4158 170.173 31.3623C170.306 31.3088 170.448 31.2833 170.592 31.2876ZM170.592 31.4836C170.374 31.4776 170.163 31.5555 170.003 31.701C169.846 31.8485 169.75 32.0489 169.734 32.2628H171.398C171.388 32.0457 171.293 31.841 171.134 31.6918C170.987 31.5557 170.793 31.4811 170.592 31.4836Z" fill="#021A70"/>
<path d="M173.498 33.4281C173.259 33.4354 173.022 33.372 172.819 33.2459C172.637 33.1306 172.503 32.9554 172.44 32.7514L172.63 32.6412C172.678 32.8116 172.784 32.9604 172.93 33.0622C173.098 33.1711 173.297 33.2247 173.498 33.2153C173.691 33.2294 173.883 33.1751 174.039 33.0622C174.1 33.0115 174.149 32.9479 174.181 32.8761C174.214 32.8042 174.23 32.726 174.228 32.6473C174.231 32.5762 174.216 32.5055 174.184 32.4417C174.152 32.378 174.104 32.3234 174.045 32.2829C173.869 32.173 173.678 32.0885 173.478 32.0318L173.274 31.9584L173.09 31.8925C173.028 31.8719 172.968 31.8447 172.911 31.8114C172.873 31.7869 172.826 31.7547 172.772 31.7134C172.725 31.6796 172.685 31.637 172.655 31.5879C172.628 31.539 172.606 31.4878 172.588 31.4348C172.569 31.3718 172.559 31.3063 172.559 31.2404C172.555 31.1343 172.576 31.0287 172.619 30.9316C172.662 30.8345 172.727 30.7485 172.809 30.68C172.985 30.5361 173.208 30.4609 173.437 30.4688C173.643 30.463 173.846 30.522 174.016 30.6372C174.173 30.7457 174.294 30.8966 174.367 31.0719L174.181 31.1745C174.128 31.023 174.027 30.8927 173.893 30.8032C173.758 30.7137 173.598 30.67 173.437 30.6785C173.264 30.6691 173.095 30.7237 172.961 30.8316C172.903 30.8804 172.857 30.9413 172.827 31.0099C172.796 31.0785 172.781 31.1531 172.783 31.2281C172.778 31.2954 172.791 31.3627 172.82 31.4238C172.849 31.4848 172.893 31.5376 172.948 31.5772C173.118 31.6797 173.3 31.7595 173.491 31.8145L173.863 31.9522C173.965 31.9933 174.063 32.0446 174.155 32.1053C174.249 32.1607 174.327 32.2399 174.381 32.335C174.428 32.4301 174.452 32.5351 174.45 32.6412C174.454 32.7499 174.433 32.858 174.387 32.9571C174.342 33.0561 174.274 33.1435 174.189 33.2122C173.992 33.3638 173.747 33.4404 173.498 33.4281Z" fill="#021A70"/>
<path d="M176.35 31.3321H176.574L175.68 33.5703C175.612 33.7567 175.495 33.9217 175.341 34.048C175.208 34.1598 175.035 34.2148 174.861 34.2011V34.0097C174.925 34.0153 174.99 34.0082 175.051 33.9888C175.113 33.9693 175.17 33.9379 175.219 33.8964C175.335 33.7976 175.423 33.6718 175.477 33.5305L175.522 33.4172L174.572 31.3321H174.794L175.629 33.1508L176.35 31.3321Z" fill="#021A70"/>
<path d="M176.935 31.8635C176.934 31.9103 176.945 31.9566 176.967 31.9978C176.99 32.0389 177.023 32.0734 177.063 32.0977C177.158 32.1578 177.263 32.2022 177.372 32.2294L177.742 32.3258C177.859 32.3559 177.966 32.4173 178.051 32.5034C178.095 32.5489 178.129 32.6026 178.152 32.6616C178.175 32.7205 178.186 32.7833 178.183 32.8464C178.185 32.9272 178.167 33.0072 178.132 33.0799C178.096 33.1526 178.043 33.2158 177.978 33.2643C177.824 33.3802 177.635 33.4387 177.442 33.4297C177.269 33.4337 177.098 33.3909 176.947 33.3057C176.818 33.2306 176.718 33.1139 176.665 32.975L176.842 32.8739C176.88 32.9849 176.958 33.0784 177.06 33.1373C177.178 33.2047 177.313 33.2381 177.449 33.2337C177.585 33.2393 177.718 33.204 177.833 33.1327C177.882 33.1034 177.922 33.0617 177.949 33.0119C177.976 32.9621 177.989 32.906 177.987 32.8494C177.988 32.8016 177.977 32.7544 177.955 32.712C177.932 32.6697 177.899 32.6338 177.859 32.6075C177.765 32.5428 177.661 32.4956 177.55 32.4682L177.179 32.3718C177.063 32.3423 176.956 32.2832 176.87 32.2003C176.827 32.1577 176.793 32.1065 176.771 32.0501C176.749 31.9936 176.739 31.9332 176.742 31.8727C176.741 31.7936 176.758 31.7153 176.792 31.6437C176.826 31.5721 176.876 31.5091 176.938 31.4593C177.08 31.3434 177.261 31.2834 177.445 31.2909C177.597 31.2875 177.746 31.3256 177.877 31.4012C177.998 31.4729 178.092 31.5799 178.148 31.7074L177.975 31.8053C177.935 31.7069 177.862 31.6252 177.768 31.5742C177.669 31.5199 177.558 31.4919 177.445 31.493C177.319 31.489 177.195 31.5255 177.091 31.5971C177.045 31.625 177.006 31.6641 176.979 31.7106C176.951 31.7571 176.936 31.8097 176.935 31.8635Z" fill="#021A70"/>
<path d="M179.635 31.5344H179.017V32.8663C179.008 32.9561 179.032 33.0459 179.083 33.1204C179.109 33.1481 179.14 33.1702 179.175 33.1852C179.21 33.2002 179.248 33.2079 179.286 33.2077C179.402 33.2148 179.518 33.2118 179.633 33.1985V33.3822C179.426 33.43 179.21 33.4101 179.015 33.3256C178.942 33.2745 178.885 33.2048 178.849 33.1239C178.813 33.043 178.8 32.954 178.811 32.8663V31.5344H178.348V31.3323H178.811V30.821L179.021 30.7582V31.3323H179.639L179.635 31.5344Z" fill="#021A70"/>
<path d="M180.909 31.2877C181.049 31.2835 181.187 31.3101 181.315 31.3654C181.443 31.4207 181.556 31.5035 181.648 31.6077C181.837 31.8182 181.938 32.0917 181.931 32.3732C181.932 32.3895 181.932 32.4059 181.931 32.4222C181.931 32.4451 181.931 32.4604 181.931 32.4712H180.052C180.069 32.6852 180.169 32.8844 180.331 33.0269C180.474 33.142 180.648 33.2136 180.831 33.2329C181.015 33.2522 181.199 33.2184 181.364 33.1356C181.482 33.0739 181.579 32.9798 181.645 32.8646L181.827 32.9718C181.74 33.1162 181.614 33.2334 181.463 33.3101C181.297 33.3957 181.112 33.4388 180.925 33.4356C180.78 33.4399 180.637 33.4149 180.502 33.3623C180.368 33.3096 180.245 33.2304 180.143 33.1295C180.041 33.0295 179.962 32.9101 179.908 32.7784C179.855 32.6468 179.83 32.5057 179.834 32.364C179.83 32.223 179.854 32.0827 179.906 31.9512C179.957 31.8198 180.035 31.6998 180.134 31.5985C180.234 31.4958 180.355 31.415 180.488 31.3615C180.622 31.308 180.765 31.2828 180.909 31.2877ZM180.909 31.4837C180.692 31.4777 180.481 31.5557 180.321 31.7011C180.163 31.8486 180.068 32.049 180.052 32.2629H181.716C181.706 32.0459 181.611 31.8412 181.452 31.6919C181.305 31.5559 181.11 31.4813 180.909 31.4837Z" fill="#021A70"/>
<path d="M184.594 31.2879C184.695 31.2833 184.796 31.2996 184.89 31.3357C184.984 31.3718 185.07 31.427 185.141 31.4976C185.213 31.5767 185.268 31.6691 185.303 31.7695C185.339 31.8699 185.353 31.9763 185.347 32.0824V33.3822H185.135V32.0809C185.145 31.919 185.089 31.7598 184.98 31.6385C184.929 31.5867 184.866 31.5463 184.798 31.5199C184.729 31.4936 184.655 31.4818 184.582 31.4854C184.497 31.4822 184.413 31.4976 184.336 31.5304C184.258 31.5632 184.188 31.6127 184.132 31.6752C184.006 31.8359 183.945 32.0372 183.961 32.2401V33.3837H183.754V32.0809C183.764 31.921 183.713 31.7632 183.611 31.6385C183.562 31.5866 183.501 31.5461 183.435 31.5197C183.368 31.4932 183.296 31.4815 183.224 31.4854C183.137 31.4834 183.051 31.4993 182.971 31.5323C182.891 31.5653 182.82 31.6145 182.76 31.6767C182.627 31.8337 182.561 32.0358 182.576 32.2401V33.3837H182.369V31.3323H182.576V31.6859C182.636 31.5625 182.731 31.4591 182.849 31.3884C182.967 31.3177 183.104 31.2827 183.242 31.2879C183.382 31.2849 183.52 31.3227 183.639 31.3966C183.753 31.4697 183.84 31.577 183.888 31.7028C183.953 31.5748 184.055 31.4684 184.18 31.3966C184.305 31.3234 184.449 31.2858 184.594 31.2879Z" fill="#021A70"/>
<path d="M188.226 31.3321H188.436V33.3821H188.226V32.9228C188.14 33.0769 188.014 33.2054 187.861 33.2948C187.701 33.3866 187.52 33.4337 187.336 33.4311C187.049 33.4311 186.774 33.3182 186.571 33.1172C186.368 32.9162 186.254 32.6436 186.254 32.3594C186.254 32.0752 186.368 31.8026 186.571 31.6016C186.774 31.4006 187.049 31.2877 187.336 31.2877C187.52 31.2847 187.701 31.3312 187.861 31.4225C188.014 31.5119 188.14 31.6411 188.226 31.796V31.3321ZM186.73 32.9764C186.895 33.1372 187.117 33.2273 187.348 33.2273C187.579 33.2273 187.801 33.1372 187.966 32.9764C188.128 32.8104 188.219 32.5883 188.219 32.3571C188.219 32.1259 188.128 31.9038 187.966 31.7378C187.801 31.577 187.579 31.4869 187.348 31.4869C187.117 31.4869 186.895 31.577 186.73 31.7378C186.566 31.9032 186.475 32.1256 186.475 32.3571C186.475 32.5886 186.566 32.811 186.73 32.9764Z" fill="#021A70"/>
<path d="M190.105 31.5344H189.487V32.8663C189.479 32.9561 189.502 33.0459 189.553 33.1204C189.579 33.1481 189.61 33.1702 189.645 33.1852C189.68 33.2002 189.718 33.2079 189.756 33.2077C189.872 33.2148 189.988 33.2118 190.103 33.1985V33.3822C189.897 33.43 189.68 33.4101 189.485 33.3256C189.413 33.2745 189.355 33.2048 189.319 33.1239C189.283 33.043 189.27 32.954 189.281 32.8663V31.5344H188.818V31.3323H189.281V30.821L189.492 30.7582V31.3323H190.11L190.105 31.5344Z" fill="#021A70"/>
<path d="M192.897 31.3322H193.107V33.3821H192.897V32.9228C192.812 33.0773 192.686 33.2059 192.532 33.2948C192.373 33.3867 192.191 33.4338 192.007 33.4311C191.72 33.4311 191.445 33.3182 191.242 33.1172C191.039 32.9162 190.925 32.6436 190.925 32.3594C190.925 32.0752 191.039 31.8026 191.242 31.6016C191.445 31.4007 191.72 31.2878 192.007 31.2878C192.191 31.2844 192.373 31.331 192.532 31.4225C192.686 31.5115 192.812 31.6408 192.897 31.796V31.3322ZM191.401 32.9764C191.566 33.1372 191.788 33.2273 192.019 33.2273C192.251 33.2273 192.473 33.1372 192.637 32.9764C192.8 32.8104 192.891 32.5883 192.891 32.3571C192.891 32.1259 192.8 31.9038 192.637 31.7379C192.473 31.577 192.251 31.4869 192.019 31.4869C191.788 31.4869 191.566 31.577 191.401 31.7379C191.238 31.9033 191.146 32.1256 191.146 32.3571C191.146 32.5887 191.238 32.811 191.401 32.9764Z" fill="#021A70"/>
<path d="M195.25 31.5344H194.632V32.8663C194.624 32.9561 194.647 33.0459 194.698 33.1204C194.724 33.148 194.756 33.1699 194.791 33.185C194.825 33.2 194.863 33.2077 194.901 33.2077C195.017 33.2148 195.133 33.2118 195.249 33.1985V33.3822C195.042 33.4299 194.825 33.41 194.63 33.3256C194.558 33.2745 194.5 33.2048 194.464 33.1239C194.428 33.043 194.415 32.954 194.427 32.8663V31.5344H193.971V31.3323H194.427V30.821L194.637 30.7582V31.3323H195.255L195.25 31.5344Z" fill="#021A70"/>
<path d="M195.937 30.7903C195.906 30.8199 195.864 30.8363 195.821 30.8362C195.8 30.8365 195.779 30.8326 195.759 30.8247C195.739 30.8169 195.721 30.8052 195.705 30.7903C195.689 30.7753 195.676 30.7571 195.668 30.7367C195.659 30.7164 195.655 30.6944 195.656 30.6724C195.656 30.6514 195.66 30.6307 195.669 30.6114C195.677 30.5922 195.69 30.5749 195.705 30.5607C195.72 30.5452 195.738 30.5329 195.758 30.5248C195.778 30.5166 195.8 30.5127 195.821 30.5132C195.843 30.5131 195.864 30.5172 195.884 30.5254C195.904 30.5335 195.922 30.5455 195.937 30.5607C195.953 30.5749 195.965 30.5922 195.974 30.6114C195.982 30.6307 195.986 30.6514 195.987 30.6724C195.987 30.6944 195.983 30.7164 195.975 30.7367C195.966 30.7571 195.953 30.7753 195.937 30.7903ZM195.718 33.3822V31.3323H195.925V33.3822H195.718Z" fill="#021A70"/>
<path d="M198.74 31.2879C198.841 31.2833 198.942 31.2996 199.036 31.3357C199.13 31.3718 199.216 31.427 199.287 31.4976C199.359 31.5767 199.414 31.6691 199.449 31.7695C199.485 31.8699 199.499 31.9763 199.493 32.0824V33.3822H199.287V32.0809C199.297 31.919 199.241 31.7598 199.133 31.6385C199.081 31.5867 199.019 31.5463 198.95 31.5199C198.881 31.4936 198.808 31.4818 198.734 31.4854C198.65 31.4822 198.566 31.4976 198.488 31.5304C198.41 31.5632 198.341 31.6127 198.284 31.6752C198.16 31.8345 198.1 32.0334 198.114 32.234V33.3776H197.907V32.0809C197.917 31.921 197.867 31.7632 197.765 31.6385C197.716 31.5866 197.655 31.5461 197.588 31.5197C197.521 31.4932 197.449 31.4815 197.377 31.4854C197.291 31.4834 197.205 31.4993 197.125 31.5323C197.045 31.5653 196.973 31.6145 196.914 31.6767C196.781 31.8337 196.715 32.0358 196.73 32.2401V33.3837H196.523V31.3323H196.73V31.6859C196.79 31.5625 196.885 31.4591 197.003 31.3884C197.121 31.3177 197.258 31.2827 197.396 31.2879C197.536 31.2849 197.674 31.3227 197.793 31.3966C197.907 31.4697 197.994 31.577 198.042 31.7028C198.107 31.5748 198.209 31.4684 198.334 31.3966C198.457 31.3247 198.597 31.2872 198.74 31.2879Z" fill="#021A70"/>
<path d="M200.979 31.2877C201.119 31.2835 201.257 31.31 201.385 31.3654C201.513 31.4207 201.626 31.5035 201.718 31.6077C201.906 31.8181 202.008 32.0917 202.001 32.3731C202.001 32.3839 202.001 32.4007 202.001 32.4221C202.001 32.4436 202.001 32.4604 202.001 32.4711H200.123C200.139 32.6852 200.239 32.8846 200.401 33.0269C200.544 33.142 200.718 33.2136 200.901 33.2329C201.084 33.2522 201.269 33.2184 201.433 33.1356C201.552 33.0739 201.649 32.9798 201.715 32.8646L201.897 32.9718C201.81 33.1162 201.684 33.2334 201.532 33.3101C201.366 33.3956 201.182 33.4388 200.995 33.4356C200.85 33.4398 200.706 33.4149 200.572 33.3622C200.438 33.3096 200.315 33.2304 200.213 33.1294C200.111 33.0295 200.031 32.9101 199.978 32.7784C199.925 32.6468 199.9 32.5057 199.904 32.364C199.9 32.223 199.924 32.0827 199.976 31.9512C200.027 31.8197 200.105 31.6998 200.204 31.5985C200.304 31.4958 200.424 31.4151 200.558 31.3616C200.692 31.3081 200.835 31.2829 200.979 31.2877ZM200.979 31.4837C200.762 31.4777 200.551 31.5557 200.39 31.7011C200.233 31.8483 200.138 32.049 200.123 32.2629H201.786C201.775 32.0462 201.681 31.8418 201.523 31.6919C201.376 31.5559 201.181 31.4813 200.979 31.4837Z" fill="#021A70"/>
</g>
<defs>
<linearGradient id="paint0_linear_217_2652" x1="75.5143" y1="13.0068" x2="88.629" y2="13.6525" gradientUnits="userSpaceOnUse">
<stop stop-color="#2AF2C3"/>
<stop offset="0.2" stop-color="#26E9C9"/>
<stop offset="0.46" stop-color="#1DD6D5"/>
<stop offset="0.66" stop-color="#11BAE7"/>
<stop offset="0.9" stop-color="#0095FF"/>
</linearGradient>
<linearGradient id="paint1_linear_217_2652" x1="75.2976" y1="17.3883" x2="88.4122" y2="18.0355" gradientUnits="userSpaceOnUse">
<stop stop-color="#2AF2C3"/>
<stop offset="0.2" stop-color="#26E9C9"/>
<stop offset="0.46" stop-color="#1DD6D5"/>
<stop offset="0.66" stop-color="#11BAE7"/>
<stop offset="0.9" stop-color="#0095FF"/>
</linearGradient>
<linearGradient id="paint2_linear_217_2652" x1="75.0685" y1="22.0853" x2="88.1832" y2="22.7309" gradientUnits="userSpaceOnUse">
<stop stop-color="#2AF2C3"/>
<stop offset="0.2" stop-color="#26E9C9"/>
<stop offset="0.46" stop-color="#1DD6D5"/>
<stop offset="0.66" stop-color="#11BAE7"/>
<stop offset="0.9" stop-color="#0095FF"/>
</linearGradient>
<clipPath id="clip0_217_2652">
<rect width="130" height="36" fill="white" transform="translate(72)"/>
</clipPath>
</defs>
</svg>
