<svg width="100" height="138" viewBox="0 0 100 138" fill="none" xmlns="http://www.w3.org/2000/svg">
<mask id="mask0_217_2093" style="mask-type:luminance" maskUnits="userSpaceOnUse" x="41" y="2" width="17" height="16">
<path d="M41.9082 2.60376H57.0458V17.1372H41.9082V2.60376Z" fill="white"/>
</mask>
<g mask="url(#mask0_217_2093)">
<path d="M49.2093 15.6589L49.4355 17.1321L49.6335 15.6564C50.0243 12.7615 52.2764 10.4708 55.1636 10.0312L56.6367 9.80493L55.161 9.60697C52.2661 9.21619 49.9754 6.96405 49.5332 4.0769L49.3096 2.60376L49.109 4.07947C48.7183 6.97434 46.4687 9.26503 43.5815 9.70723L42.1084 9.9309L43.5841 10.1314C46.479 10.5196 48.7697 12.7718 49.2093 15.6589Z" fill="#004AAD"/>
</g>
<mask id="mask1_217_2093" style="mask-type:luminance" maskUnits="userSpaceOnUse" x="10" y="18" width="40" height="84">
<path d="M10.0532 18.618H49.2753V101.492H10.0532V18.618Z" fill="white"/>
</mask>
<g mask="url(#mask1_217_2093)">
<path d="M34.4822 89.5629C34.4822 89.5629 44.4085 86.8377 44.4857 68.7898C44.5165 61.0899 43.1411 54.9402 45.5423 43.7824C47.9461 32.6271 49.5581 25.4028 48.3318 18.7775C48.3318 18.7775 46.1233 33.5398 34.4822 40.5147C19.8587 49.2739 13.5163 58.7863 13.8993 70.1369C13.8993 70.1369 18.4704 58.8197 28.9778 55.8657C28.9778 55.8657 29.8005 87.6398 10.0532 101.489C10.0532 101.489 26.8979 98.5483 37.7524 71.4815C37.7524 71.4815 39.2924 84.1794 34.4822 89.5629Z" fill="#A6A6A6"/>
</g>
<mask id="mask2_217_2093" style="mask-type:luminance" maskUnits="userSpaceOnUse" x="50" y="18" width="39" height="84">
<path d="M50.2627 18.6502H88.9012V101.46H50.2627V18.6502Z" fill="white"/>
</mask>
<g mask="url(#mask2_217_2093)">
<path d="M64.5932 89.5332C64.5932 89.5332 54.6694 86.808 54.5922 68.7601C54.5588 61.0602 55.9368 54.9105 53.533 43.7527C51.1292 32.5975 49.5198 25.3731 50.7436 18.7479C50.7436 18.7479 52.9546 33.5101 64.5932 40.4851C79.2166 49.2442 85.5616 58.7566 85.176 70.1073C85.176 70.1073 80.6075 58.7901 70.1001 55.8361C70.1001 55.8361 69.2774 87.6102 89.0247 101.46C89.0247 101.46 72.18 98.5186 61.3229 71.4519C61.3229 71.4519 59.7855 84.1497 64.5932 89.5332Z" fill="#8C52FF"/>
</g>
<path d="M19.1015 126.173C16.4277 126.173 15.0908 124.782 15.0908 121.998V119.458H17.9805V121.679C17.9805 122.612 18.1579 123.191 18.5153 123.417C18.6516 123.499 18.8701 123.54 19.1735 123.54C19.1863 123.54 19.2094 123.54 19.2454 123.54C19.9165 123.54 20.2532 122.877 20.2532 121.545V116.362C20.2532 115.629 20.1761 115.082 20.027 114.717C19.8753 114.354 19.5771 114.172 19.1323 114.172C18.3302 114.172 17.9291 114.827 17.9291 116.136L15.2142 116.023V105.677H22.7111V108.444H18.0525V112.557C18.2016 112.269 18.4664 112.04 18.8444 111.868C19.2274 111.691 19.6465 111.601 20.099 111.601C21.2765 111.601 22.0966 112.123 22.5568 113.164C23.0144 114.2 23.2458 115.848 23.2458 118.11C23.2458 120.373 23.1661 121.944 23.0093 122.82C22.8576 123.7 22.6288 124.368 22.3203 124.826C21.729 125.725 20.6569 126.173 19.1015 126.173Z" fill="black"/>
<path d="M29.9771 120.249V118.439H32.8977V120.476C32.8977 121.607 32.9928 122.404 33.1857 122.861C33.3759 123.314 33.7358 123.54 34.2654 123.54C34.7925 123.54 35.1421 123.353 35.3144 122.975C35.4918 122.599 35.5818 121.985 35.5818 121.134C35.5818 120.285 35.4275 119.545 35.119 118.913C34.8105 118.275 34.322 117.612 33.6587 116.917L32.1573 115.375C31.458 114.65 30.913 113.894 30.5222 113.113C30.1365 112.326 29.9463 111.416 29.9463 110.387C29.9463 108.716 30.2677 107.474 30.913 106.665C31.5557 105.85 32.6663 105.441 34.2449 105.441C35.8209 105.441 36.8878 105.914 37.4431 106.86C37.9984 107.806 38.2761 109.192 38.2761 111.015V112.269H35.4275V110.819C35.4275 109.832 35.3401 109.128 35.1704 108.701C35.0059 108.277 34.6819 108.063 34.2037 108.063C33.723 108.063 33.3759 108.225 33.1651 108.547C32.9594 108.87 32.8566 109.354 32.8566 109.997C32.8566 110.642 32.962 111.156 33.1754 111.539C33.3862 111.925 33.7744 112.418 34.3374 113.02L36.0034 114.82C36.8389 115.732 37.4688 116.655 37.8956 117.586C38.3275 118.511 38.5435 119.524 38.5435 120.62C38.5435 122.512 38.2247 123.91 37.5871 124.815C36.9495 125.72 35.8311 126.173 34.2346 126.173C32.6432 126.173 31.5351 125.669 30.913 124.661C30.2882 123.653 29.9771 122.183 29.9771 120.249Z" fill="black"/>
<path d="M41.8355 125.947V108.351H39.46V105.677H47.183V108.351H44.9V125.947H41.8355Z" fill="black"/>
<path d="M54.3202 119.859L52.9627 109.678H52.9216L51.6773 119.859H54.3202ZM47.9648 125.947L50.8546 105.677H54.9372L58.012 125.947H55.1326L54.6493 122.327H51.379L50.9368 125.947H47.9648Z" fill="black"/>
<path d="M64.1988 116.424L63.2116 116.383V125.947H60.1265V105.677H65.2272C66.2813 105.677 67.0705 105.893 67.5924 106.325C68.1195 106.752 68.4666 107.348 68.6311 108.115C68.7956 108.876 68.8779 109.873 68.8779 111.107C68.8779 112.336 68.7468 113.272 68.4871 113.915C68.2249 114.56 67.7416 114.994 67.0371 115.221C67.7287 115.339 68.212 115.807 68.4871 116.63C68.7674 117.452 68.9088 119.164 68.9088 121.761C68.9088 124.36 68.9447 125.756 69.0219 125.947H65.9368C65.8596 125.797 65.8236 123.376 65.8236 118.686C65.8236 117.789 65.7131 117.193 65.4946 116.897C65.2812 116.596 64.8493 116.439 64.1988 116.424ZM63.2219 113.987H64.4559C64.8467 113.987 65.1346 113.899 65.3197 113.719C65.51 113.542 65.6411 113.241 65.7105 112.814C65.7851 112.382 65.8236 111.724 65.8236 110.84V110.716C65.8236 109.621 65.7311 108.904 65.546 108.567C65.3609 108.225 64.9341 108.053 64.2708 108.053H63.2219V113.987Z" fill="black"/>
<path d="M71.3531 120.249V118.439H74.2737V120.476C74.2737 121.607 74.3688 122.404 74.5616 122.861C74.7519 123.314 75.1118 123.54 75.6414 123.54C76.1685 123.54 76.5181 123.353 76.6904 122.975C76.8678 122.599 76.9577 121.985 76.9577 121.134C76.9577 120.285 76.8035 119.545 76.495 118.913C76.1865 118.275 75.698 117.612 75.0347 116.917L73.5333 115.375C72.834 114.65 72.2889 113.894 71.8982 113.113C71.5125 112.326 71.3223 111.416 71.3223 110.387C71.3223 108.716 71.6436 107.474 72.2889 106.665C72.9317 105.85 74.0423 105.441 75.6209 105.441C77.1968 105.441 78.2638 105.914 78.8191 106.86C79.3744 107.806 79.6521 109.192 79.6521 111.015V112.269H76.8035V110.819C76.8035 109.832 76.7161 109.128 76.5464 108.701C76.3819 108.277 76.0579 108.063 75.5797 108.063C75.099 108.063 74.7519 108.225 74.5411 108.547C74.3354 108.87 74.2326 109.354 74.2326 109.997C74.2326 110.642 74.338 111.156 74.5514 111.539C74.7622 111.925 75.1504 112.418 75.7134 113.02L77.3794 114.82C78.2149 115.732 78.8448 116.655 79.2716 117.586C79.7035 118.511 79.9194 119.524 79.9194 120.62C79.9194 122.512 79.6007 123.91 78.9631 124.815C78.3255 125.72 77.2071 126.173 75.6106 126.173C74.0192 126.173 72.9111 125.669 72.2889 124.661C71.6642 123.653 71.3531 122.183 71.3531 120.249Z" fill="black"/>
<path d="M10.9995 137.671H7.81152V132.313H10.9995V132.827H8.36684V134.73H10.9172V135.254H8.36684V137.157H10.9995V137.671Z" fill="#004AAD"/>
<path d="M17.264 134.997C17.264 135.383 17.192 135.738 17.0481 136.067C16.9041 136.396 16.7087 136.679 16.4619 136.91C16.2151 137.152 15.922 137.337 15.5878 137.465C15.251 137.604 14.8911 137.671 14.508 137.671H13.0991V132.313H14.508C14.8911 132.313 15.251 132.38 15.5878 132.509C15.922 132.647 16.2151 132.835 16.4619 133.074C16.7087 133.308 16.9041 133.588 17.0481 133.917C17.192 134.247 17.264 134.606 17.264 134.997ZM16.7293 134.997C16.7293 134.388 16.5133 133.876 16.0814 133.465C15.6623 133.069 15.1404 132.868 14.5183 132.868H13.6544V137.116H14.5183C15.1404 137.116 15.6623 136.918 16.0814 136.519C16.5133 136.108 16.7293 135.601 16.7293 134.997Z" fill="#004AAD"/>
<path d="M23.0028 135.902C23.0028 136.478 22.8125 136.936 22.4372 137.27C22.0798 137.586 21.6068 137.743 21.018 137.743C20.4139 137.743 19.9331 137.586 19.5783 137.27C19.2004 136.936 19.0127 136.478 19.0127 135.902V132.313H19.568V135.974C19.568 136.38 19.712 136.691 19.9999 136.91C20.2519 137.095 20.5912 137.188 21.018 137.188C21.6685 137.188 22.1081 136.969 22.3343 136.529C22.4166 136.38 22.4577 136.195 22.4577 135.974V132.313H23.0028V135.902Z" fill="#004AAD"/>
<path d="M29.9031 136.036C29.7026 136.55 29.3786 136.961 28.9262 137.27C28.4737 137.594 27.9723 137.753 27.4247 137.753C26.6843 137.753 26.0519 137.481 25.5325 136.93C25.0106 136.396 24.751 135.753 24.751 134.997C24.751 134.627 24.8178 134.275 24.9567 133.938C25.0929 133.609 25.2857 133.318 25.5325 133.064C26.0519 132.516 26.6843 132.241 27.4247 132.241C27.9723 132.241 28.4737 132.395 28.9262 132.704C29.3786 133.02 29.7026 133.434 29.9031 133.948H29.2964C29.0084 133.413 28.5765 133.061 28.0006 132.889C27.8078 132.835 27.5893 132.807 27.3425 132.807C27.0957 132.807 26.8437 132.866 26.5918 132.982C26.3295 133.105 26.1084 133.267 25.9233 133.465C25.512 133.892 25.3063 134.401 25.3063 134.997C25.3063 135.594 25.512 136.105 25.9233 136.529C26.3347 136.969 26.8334 137.188 27.4247 137.188C27.8207 137.188 28.1883 137.082 28.5251 136.869C28.8593 136.658 29.1164 136.38 29.2964 136.036H29.9031Z" fill="#004AAD"/>
<path d="M32.526 135.696H34.4696L33.5029 133.239L32.526 135.696ZM35.8476 137.671H35.2512L34.6753 136.211H32.3203L31.7444 137.671H31.1479L33.5029 131.943L35.8476 137.671Z" fill="#004AAD"/>
<path d="M37.0029 132.807V132.303H40.16V132.807H38.854V137.65H38.309V132.807H37.0029Z" fill="#004AAD"/>
<path d="M42.381 137.671H41.8257V132.313H42.381V137.671Z" fill="#004AAD"/>
<path d="M49.2063 134.977C49.2063 134.375 48.9903 133.856 48.5584 133.424C48.1316 132.992 47.6149 132.776 47.0055 132.776C46.4014 132.776 45.8846 132.992 45.4527 133.424C45.0208 133.856 44.8048 134.375 44.8048 134.977C44.8048 135.588 45.0208 136.108 45.4527 136.54C45.8846 136.972 46.4014 137.188 47.0055 137.188C47.6149 137.188 48.1316 136.972 48.5584 136.54C48.9903 136.108 49.2063 135.588 49.2063 134.977ZM49.7616 134.977C49.7616 135.355 49.6896 135.712 49.5456 136.046C49.4017 136.383 49.2063 136.673 48.9595 136.92C48.7049 137.175 48.4093 137.373 48.0751 137.517C47.7383 137.661 47.3809 137.733 47.0055 137.733C46.6276 137.733 46.2703 137.661 45.936 137.517C45.5992 137.373 45.3087 137.175 45.0619 136.92C44.8151 136.673 44.6197 136.383 44.4758 136.046C44.3241 135.712 44.2495 135.355 44.2495 134.977C44.2495 134.601 44.3241 134.244 44.4758 133.907C44.6197 133.573 44.8151 133.28 45.0619 133.033C45.3087 132.786 45.5992 132.588 45.936 132.437C46.2703 132.3 46.6276 132.231 47.0055 132.231C47.3809 132.231 47.7383 132.3 48.0751 132.437C48.4093 132.588 48.7049 132.786 48.9595 133.033C49.2063 133.28 49.4017 133.573 49.5456 133.907C49.6896 134.244 49.7616 134.601 49.7616 134.977Z" fill="#004AAD"/>
<path d="M52.1774 133.722V137.671H51.6221V131.974L54.6352 136.252V132.313H55.1905V138L52.1774 133.722Z" fill="#004AAD"/>
<path d="M65.2561 136.036C65.0556 136.55 64.7317 136.961 64.2792 137.27C63.8267 137.594 63.3254 137.753 62.7778 137.753C62.0373 137.753 61.4049 137.481 60.8856 136.93C60.3637 136.396 60.104 135.753 60.104 134.997C60.104 134.627 60.1708 134.275 60.3097 133.938C60.4459 133.609 60.6388 133.318 60.8856 133.064C61.4049 132.516 62.0373 132.241 62.7778 132.241C63.3254 132.241 63.8267 132.395 64.2792 132.704C64.7317 133.02 65.0556 133.434 65.2561 133.948H64.6494C64.3615 133.413 63.9295 133.061 63.3537 132.889C63.1608 132.835 62.9423 132.807 62.6955 132.807C62.4487 132.807 62.1967 132.866 61.9448 132.982C61.6826 133.105 61.4615 133.267 61.2763 133.465C60.865 133.892 60.6593 134.401 60.6593 134.997C60.6593 135.594 60.865 136.105 61.2763 136.529C61.6877 136.969 62.1865 137.188 62.7778 137.188C63.1737 137.188 63.5413 137.082 63.8781 136.869C64.2123 136.658 64.4694 136.38 64.6494 136.036H65.2561Z" fill="#004AAD"/>
<path d="M70.1923 137.671H67.0044V132.313H70.1923V132.827H67.5597V134.73H70.1101V135.254H67.5597V137.157H70.1923V137.671Z" fill="#004AAD"/>
<path d="M72.8473 133.722V137.671H72.292V131.974L75.3051 136.252V132.313H75.8604V138L72.8473 133.722Z" fill="#004AAD"/>
<path d="M77.5254 132.807V132.303H80.6825V132.807H79.3765V137.65H78.8314V132.807H77.5254Z" fill="#004AAD"/>
<path d="M85.5356 137.671H82.3477V132.313H85.5356V132.827H82.903V134.73H85.4533V135.254H82.903V137.157H85.5356V137.671Z" fill="#004AAD"/>
<path d="M88.1906 135.028H89.4349C89.7434 135.028 89.9954 134.923 90.1959 134.709C90.4016 134.498 90.5044 134.234 90.5044 133.917C90.5044 133.604 90.4067 133.347 90.2165 133.146C90.0236 132.94 89.764 132.838 89.4349 132.838H88.1906V135.028ZM91.0597 133.928C91.0597 134.396 90.8952 134.786 90.5661 135.1C90.2705 135.367 89.9131 135.517 89.4966 135.542L91.142 137.671H90.4016L88.8384 135.553H88.1906V137.671H87.6353V132.313H89.3526C89.8308 132.313 90.237 132.465 90.5661 132.766C90.8952 133.082 91.0597 133.47 91.0597 133.928Z" fill="#004AAD"/>
<path d="M80.152 17.8331C84.7899 21.7297 85.3912 28.6505 81.4945 33.2885C77.5934 37.9265 70.6771 38.5277 66.0392 34.6311C61.4012 30.7345 60.8 23.8137 64.6966 19.1757C68.5932 14.5377 75.514 13.9365 80.152 17.8331Z" fill="#8C52FF"/>
<path d="M92.9128 28.9986C93.0484 29.2834 93.0168 29.6315 92.7998 29.8892C92.5828 30.1468 92.2438 30.2372 91.9409 30.1559L91.8641 30.2463L89.4411 35.4493L86.6249 33.0851L91.3352 29.8033L91.412 29.7129C91.2764 29.4235 91.3081 29.0755 91.525 28.8178C91.742 28.5601 92.0811 28.4697 92.3839 28.5511L96.3529 23.8318L93.5005 18.7282L94.8747 23.3345L91.6109 22.2406L86.4938 28.3296C87.199 23.7956 85.5852 19.0085 81.8242 15.8441C78.1219 12.7341 73.2353 11.952 68.9409 13.3263L73.927 7.3864L69.9309 0L89.4818 6.82587L99.5759 24.9076L97.0535 24.0668L92.9128 28.9986Z" fill="#8C52FF"/>
<path d="M19.4244 17.8331C14.7864 21.7297 14.1852 28.6505 18.0818 33.2885C21.9785 37.9265 28.8947 38.5277 33.5327 34.6311C38.1707 30.7345 38.7719 23.8137 34.8753 19.1757C30.9787 14.5377 24.0624 13.9365 19.4244 17.8331Z" fill="#A6A6A6"/>
<path d="M6.66313 28.9986C6.52752 29.2834 6.55916 29.6315 6.77614 29.8892C6.9886 30.1468 7.33215 30.2372 7.63502 30.1559L7.71187 30.2463L10.1348 35.4493L12.9511 33.0851L8.24076 29.8033L8.16392 29.7129C8.29953 29.4235 8.26789 29.0755 8.05091 28.8178C7.83392 28.5601 7.49489 28.4697 7.1875 28.5511L3.22307 23.8318L6.07547 18.7282L4.70126 23.3345L7.96502 22.2406L13.0776 28.3296C12.377 23.7956 13.9862 19.0085 17.7518 15.8441C21.454 12.7341 26.3406 11.952 30.635 13.3263L25.6445 7.3864L29.6405 0L10.0896 6.82587L0 24.9076L2.51789 24.0668L6.66313 28.9986Z" fill="#A6A6A6"/>
</svg>
