<svg width="26" height="26" viewBox="0 0 26 26" fill="none" xmlns="http://www.w3.org/2000/svg">
<path d="M21.6668 23.8333V20.5833C21.6668 18.5406 21.6668 17.5192 21.0322 16.8846C20.3976 16.25 19.3762 16.25 17.3335 16.25H15.1668L13.0002 18.4167L10.8335 16.25H8.66683C6.62407 16.25 5.6027 16.25 4.9681 16.8846C4.3335 17.5192 4.3335 18.5406 4.3335 20.5833V23.8333" stroke="#4311A5" stroke-width="1.625" stroke-linecap="round" stroke-linejoin="round"/>
<path d="M17.3335 16.25V23.8333" stroke="#4311A5" stroke-width="1.625" stroke-linecap="round" stroke-linejoin="round"/>
<path d="M8.6665 16.25V23.8333" stroke="#4311A5" stroke-width="1.625" stroke-linecap="round" stroke-linejoin="round"/>
<path d="M16.7918 9.75002V7.58335C16.7918 5.48927 15.0942 3.79169 13.0002 3.79169C10.9061 3.79169 9.2085 5.48927 9.2085 7.58335V9.75002C9.2085 11.8441 10.9061 13.5417 13.0002 13.5417C15.0942 13.5417 16.7918 11.8441 16.7918 9.75002Z" stroke="#4311A5" stroke-width="1.625" stroke-linecap="round" stroke-linejoin="round"/>
<path d="M8.125 8.125H17.875" stroke="#4311A5" stroke-width="1.625" stroke-linecap="round" stroke-linejoin="round"/>
<path d="M13 2.16669V3.79169" stroke="#4311A5" stroke-width="1.625" stroke-linecap="round" stroke-linejoin="round"/>
</svg>
