<svg width="24" height="24" viewBox="0 0 24 24" fill="none" xmlns="http://www.w3.org/2000/svg">
<path d="M9.71263 7.97461C6.60455 7.97461 4.08496 10.2303 4.08496 13.0129H9.71263V7.97461Z" stroke="#4311A5" stroke-width="1.5"/>
<path d="M2.53453 15.926C3.77319 18.368 6.52105 20.0662 9.71196 20.0662V13.0127H4.87217C3.40834 13.0127 2.67643 13.0127 2.23141 13.7319C1.78639 14.4511 2.03577 14.9427 2.53453 15.926Z" stroke="#4311A5" stroke-width="1.5"/>
<path d="M12.7143 21.6766C16.8429 20.5311 19.8417 17.0854 19.8417 13.0127H9.71191V19.0586C9.71191 20.5322 9.71191 21.269 10.3125 21.7226C10.9132 22.1763 11.5135 22.0097 12.7143 21.6766Z" stroke="#4311A5" stroke-width="1.5"/>
<path d="M21.6407 10.0343C20.4532 6.21439 17.0379 3.22528 12.7269 2.25958C11.4774 1.97968 10.8526 1.83973 10.2823 2.29354C9.71191 2.74735 9.71191 3.48208 9.71191 4.95155V13.0127H19.0538C20.5337 13.0127 21.2736 13.0127 21.7291 12.3984C22.1846 11.784 22.0033 11.2008 21.6407 10.0343Z" stroke="#4311A5" stroke-width="1.5"/>
</svg>
