<svg width="151" height="45" viewBox="0 0 151 45" fill="none" xmlns="http://www.w3.org/2000/svg">
<g clip-path="url(#clip0_776_9296)">
<path d="M54.1783 25.1804C53.9413 24.7964 53.6414 24.4549 53.2913 24.1702C52.9335 23.8593 52.5563 23.5715 52.162 23.3084C51.7244 23.0459 51.2644 22.8227 50.7874 22.6415C50.1583 22.3879 49.6594 22.1987 49.3049 22.081C48.9504 21.9633 48.3928 21.7854 47.6768 21.5612C45.8328 21.0007 44.5942 20.4696 43.9132 19.9568C43.5374 19.6942 43.2318 19.3434 43.0232 18.9352C42.8146 18.527 42.7093 18.0738 42.7166 17.6154C42.7079 17.1855 42.8011 16.7596 42.9886 16.3726C43.1762 15.9856 43.4527 15.6485 43.7955 15.3889C44.4652 14.8551 45.3732 14.5847 46.4914 14.5847C48.6001 14.5847 50.2129 15.5206 51.2876 17.3674L54.0508 15.7687C53.3616 14.5208 52.3755 13.4621 51.1797 12.686C49.8472 11.8215 48.2667 11.3857 46.4914 11.3857C44.5213 11.3857 42.8174 11.9756 41.4275 13.14C40.0375 14.3044 39.3845 15.8023 39.3845 17.7485C39.365 18.6275 39.5406 19.4999 39.8988 20.3029C40.2274 21.0037 40.7306 21.6083 41.3602 22.0586C42.004 22.532 42.698 22.9328 43.4298 23.2538C44.2823 23.611 45.1548 23.9184 46.043 24.1744C48.0285 24.7349 49.3862 25.2505 50.1905 25.7507C51.1265 26.3308 51.6211 27.1981 51.6211 28.2588C51.6211 29.192 51.2274 29.9711 50.4511 30.575C49.7071 31.1425 48.638 31.4227 47.1667 31.4227C44.454 31.4227 42.5218 30.3018 41.4219 28.0935L38.5732 29.7595C39.1834 31.1664 40.1972 32.3606 41.4863 33.191C42.9688 34.162 44.8352 34.6553 47.0364 34.6553C49.4184 34.6553 51.3591 34.057 52.8177 32.8758C54.2764 31.6946 54.9545 30.1813 54.9545 28.1888C54.9609 27.1358 54.6949 26.099 54.1825 25.179L54.1783 25.1804Z" fill="#4E13A3"/>
<path d="M58.97 23.7516V18.252H55.3857V23.6087C55.3857 26.9337 58.1138 31.8547 63.9708 31.8547C65.3711 31.8571 66.7529 31.5348 68.0076 30.9131L68.9703 30.4311V33.1942C68.9703 35.6337 66.9609 38.2385 63.9708 38.2385C63.1075 38.2333 62.2601 38.0056 61.5103 37.5776C60.7605 37.1496 60.1336 36.5356 59.6902 35.7948V35.7808H55.8537C56.4521 37.4495 57.5551 38.8905 59.0097 39.9039C60.4642 40.9173 62.1981 41.4528 63.9708 41.436C69.818 41.436 72.5097 36.6089 72.5531 33.1802V18.252H68.9703V23.5597C68.9703 26.0342 67.0773 28.7062 64.0185 28.7062C60.9989 28.7048 58.97 26.1434 58.97 23.7516Z" fill="#4E13A3"/>
<path d="M81.7252 18.252C76.2298 18.252 73.667 22.8549 73.667 25.9669V34.7439H77.254V25.9669C77.254 23.8091 79.0504 21.4971 81.7252 21.4971C84.3707 21.4971 86.1474 23.8091 86.1474 25.9669C86.1796 27.972 86.1684 30.0528 86.1586 31.8897C86.1586 32.8453 86.1474 33.7981 86.1474 34.7439H89.7316V25.9669C89.7316 22.8549 87.1871 18.252 81.7252 18.252Z" fill="#4E13A3"/>
<path d="M99.2433 31.5941C96.1607 31.5941 94.2424 28.9487 94.2424 26.498C94.2424 24.0473 96.1537 21.4005 99.2433 21.4005C100.115 21.3986 100.972 21.6292 101.725 22.0686C102.478 22.508 103.101 23.1402 103.528 23.9002L103.567 23.9661L106.618 22.2482C105.822 21.0176 104.729 20.0067 103.441 19.3084C102.152 18.6102 100.709 18.2469 99.2433 18.252C93.3877 18.252 90.6582 23.173 90.6582 26.4994C90.6582 29.8258 93.3877 34.7454 99.2433 34.7454C100.715 34.75 102.163 34.3813 103.453 33.6739C104.743 32.9664 105.832 31.9433 106.619 30.7002L103.587 28.9935L103.53 29.093C102.601 30.6385 100.96 31.5941 99.2433 31.5941Z" fill="#4E13A3"/>
<path d="M76.091 37.957L74.9434 39.8094V41.1055H74.7052V39.8094L73.5576 37.957H73.8281L74.8271 39.5782L75.8205 37.957H76.091Z" fill="#4E13A3"/>
<path d="M76.9996 41.154C76.8438 41.1571 76.689 41.1287 76.5445 41.0704C76.4 41.0121 76.2689 40.9252 76.1589 40.8149C75.9389 40.5929 75.8154 40.293 75.8154 39.9805C75.8154 39.6679 75.9389 39.3681 76.1589 39.1461C76.3826 38.9278 76.6828 38.8057 76.9954 38.8057C77.3079 38.8057 77.6081 38.9278 77.8319 39.1461C78.0525 39.3677 78.1764 39.6677 78.1764 39.9805C78.1764 40.2932 78.0525 40.5933 77.8319 40.8149C77.7232 40.9247 77.5935 41.0114 77.4504 41.0696C77.3074 41.1279 77.154 41.1566 76.9996 41.154ZM76.3298 40.6593C76.5092 40.838 76.752 40.9383 77.0052 40.9383C77.2583 40.9383 77.5012 40.838 77.6805 40.6593C77.8561 40.4767 77.9541 40.2331 77.9541 39.9798C77.9541 39.7264 77.8561 39.4829 77.6805 39.3002C77.5012 39.1215 77.2583 39.0212 77.0052 39.0212C76.752 39.0212 76.5092 39.1215 76.3298 39.3002C76.152 39.4817 76.0524 39.7257 76.0524 39.9798C76.0524 40.2339 76.152 40.4778 76.3298 40.6593Z" fill="#4E13A3"/>
<path d="M80.2743 38.8563H80.4985V41.1052H80.2743V40.6779C80.2058 40.8005 80.1104 40.9061 79.9952 40.9866C79.8801 41.0671 79.7482 41.1205 79.6094 41.1427C79.4707 41.165 79.3287 41.1555 79.1942 41.115C79.0596 41.0746 78.936 41.0041 78.8325 40.9091C78.7519 40.821 78.6895 40.7178 78.6488 40.6055C78.6082 40.4932 78.5901 40.374 78.5957 40.2547V38.8535H78.8255V40.2547C78.8161 40.4373 78.8785 40.6163 78.9993 40.7535C79.0627 40.8172 79.1391 40.8666 79.2231 40.8985C79.3072 40.9304 79.3971 40.944 79.4869 40.9385C79.5923 40.942 79.6972 40.9234 79.795 40.8838C79.8927 40.8442 79.9811 40.7846 80.0544 40.7087C80.2119 40.5241 80.2909 40.2852 80.2743 40.0431V38.8563Z" fill="#4E13A3"/>
<path d="M81.3531 39.2965C81.4114 39.1479 81.5157 39.0218 81.6509 38.9369C81.7861 38.8519 81.9449 38.8124 82.1041 38.8243V39.0401C81.9057 39.0349 81.7133 39.1085 81.5689 39.2447C81.4929 39.326 81.4345 39.4221 81.3974 39.527C81.3603 39.6318 81.3452 39.7432 81.3531 39.8542V41.1055H81.1289V38.8566H81.3531V39.2965Z" fill="#4E13A3"/>
<path d="M83.9169 40.8799H85.4904V41.1055H83.6787V37.957H85.468V38.1812H83.9169V39.4101H85.3559V39.6357H83.9169V40.8799Z" fill="#4E13A3"/>
<path d="M87.9066 37.957H88.1308V41.1055H87.9066V40.5829C87.8172 40.757 87.6808 40.9026 87.5129 41.0032C87.3395 41.1057 87.1412 41.1585 86.9398 41.1559C86.6284 41.1559 86.3297 41.0322 86.1095 40.812C85.8893 40.5918 85.7656 40.2932 85.7656 39.9817C85.7656 39.6703 85.8893 39.3717 86.1095 39.1515C86.3297 38.9313 86.6284 38.8076 86.9398 38.8076C87.1412 38.805 87.3395 38.8578 87.5129 38.9603C87.6808 39.0609 87.8172 39.2065 87.9066 39.3806V37.957ZM86.2785 40.6599C86.4587 40.8385 86.7022 40.9387 86.9559 40.9387C87.2097 40.9387 87.4531 40.8385 87.6334 40.6599C87.7681 40.526 87.86 40.355 87.8973 40.1687C87.9347 39.9824 87.9158 39.7892 87.8431 39.6137C87.7704 39.4382 87.6472 39.2882 87.4891 39.1828C87.331 39.0775 87.1452 39.0215 86.9552 39.0219C86.8293 39.0199 86.7042 39.0438 86.5878 39.092C86.4714 39.1402 86.3661 39.2117 86.2785 39.3022C86.1029 39.4849 86.0049 39.7284 86.0049 39.9817C86.0049 40.2351 86.1029 40.4786 86.2785 40.6613V40.6599Z" fill="#4E13A3"/>
<path d="M90.3791 38.8563H90.6047V41.1052H90.3791V40.6779C90.3107 40.8003 90.2154 40.9056 90.1005 40.9859C89.9856 41.0663 89.854 41.1196 89.7155 41.1418C89.5771 41.1641 89.4354 41.1547 89.3011 41.1144C89.1668 41.074 89.0434 41.0039 88.9401 40.9091C88.8591 40.8212 88.7965 40.7181 88.7558 40.6057C88.7152 40.4934 88.6973 40.374 88.7033 40.2547V38.8535H88.9331V40.2547C88.9233 40.4371 88.9851 40.6161 89.1054 40.7535C89.1693 40.8171 89.2459 40.8664 89.3301 40.8983C89.4144 40.9302 89.5045 40.9439 89.5944 40.9385C89.6987 40.9411 89.8023 40.922 89.8988 40.8825C89.9953 40.8429 90.0825 40.7837 90.1549 40.7087C90.313 40.5244 90.392 40.2853 90.3749 40.0431L90.3791 38.8563Z" fill="#4E13A3"/>
<path d="M92.2643 41.1541C92.1085 41.1581 91.9536 41.1301 91.8091 41.0721C91.6645 41.014 91.5333 40.927 91.4236 40.8164C91.207 40.5918 91.0859 40.2919 91.0859 39.9799C91.0859 39.6679 91.207 39.368 91.4236 39.1434C91.6124 38.9631 91.8541 38.8481 92.1131 38.8153C92.3721 38.7825 92.6348 38.8337 92.8626 38.9612C93.0323 39.0575 93.1675 39.2045 93.2493 39.3816L93.0658 39.4895C92.9998 39.3458 92.8905 39.2262 92.7533 39.1476C92.6061 39.0624 92.4385 39.0188 92.2685 39.0215C92.1422 39.0189 92.0168 39.0424 91.9001 39.0906C91.7834 39.1389 91.6779 39.2107 91.5903 39.3017C91.414 39.4845 91.3154 39.7287 91.3154 39.9827C91.3154 40.2367 91.414 40.4808 91.5903 40.6637C91.6779 40.7547 91.7834 40.8265 91.9001 40.8748C92.0168 40.923 92.1422 40.9465 92.2685 40.9439C92.4385 40.9466 92.6061 40.903 92.7533 40.8178C92.8921 40.7372 93.0049 40.6186 93.0784 40.4759L93.2675 40.588C93.1773 40.7643 93.0376 40.9104 92.8654 41.0084C92.6818 41.1102 92.4741 41.1606 92.2643 41.1541Z" fill="#4E13A3"/>
<path d="M95.6522 38.8562H95.8806V41.1051H95.6522V40.5965C95.5594 40.7662 95.4224 40.9076 95.2556 41.0056C95.0822 41.1063 94.8845 41.1576 94.684 41.1541C94.3725 41.1541 94.0739 41.0304 93.8537 40.8102C93.6335 40.59 93.5098 40.2914 93.5098 39.9799C93.5098 39.6685 93.6335 39.3699 93.8537 39.1497C94.0739 38.9295 94.3725 38.8058 94.684 38.8058C94.8844 38.8033 95.0818 38.8545 95.2556 38.9543C95.4224 39.0523 95.5594 39.1937 95.6522 39.3634V38.8562ZM94.0254 40.6595C94.205 40.8383 94.4481 40.9386 94.7015 40.9386C94.9549 40.9386 95.1979 40.8383 95.3775 40.6595C95.5531 40.4768 95.6511 40.2333 95.6511 39.9799C95.6511 39.7266 95.5531 39.4831 95.3775 39.3004C95.1979 39.1216 94.9549 39.0213 94.7015 39.0213C94.4481 39.0213 94.205 39.1216 94.0254 39.3004C93.8499 39.4831 93.7518 39.7266 93.7518 39.9799C93.7518 40.2333 93.8499 40.4768 94.0254 40.6595Z" fill="#4E13A3"/>
<path d="M97.6618 39.0762H96.992V40.5377C96.9832 40.6365 97.0084 40.7354 97.0634 40.8179C97.0918 40.8483 97.126 40.8726 97.1641 40.8892C97.2022 40.9058 97.2433 40.9145 97.2848 40.9146C97.4106 40.9221 97.5367 40.9183 97.6618 40.9034V41.1066C97.3591 41.1514 97.1335 41.1304 96.985 41.0435C96.8365 40.9566 96.7622 40.7885 96.7622 40.5391V39.0762H96.2676V38.8562H96.7622V38.2958L96.992 38.2285V38.8591H97.6618V39.0762Z" fill="#4E13A3"/>
<path d="M98.3778 38.2597C98.3442 38.2929 98.2989 38.3115 98.2517 38.3115C98.2045 38.3115 98.1592 38.2929 98.1256 38.2597C98.1081 38.2434 98.0943 38.2237 98.0851 38.2017C98.076 38.1797 98.0716 38.156 98.0723 38.1322C98.0718 38.109 98.0763 38.086 98.0855 38.0647C98.0947 38.0434 98.1084 38.0244 98.1256 38.0088C98.1592 37.9756 98.2045 37.957 98.2517 37.957C98.2989 37.957 98.3442 37.9756 98.3778 38.0088C98.3947 38.0246 98.4082 38.0437 98.4174 38.0649C98.4266 38.0861 98.4312 38.109 98.431 38.1322C98.4315 38.1559 98.427 38.1796 98.4179 38.2015C98.4087 38.2235 98.3951 38.2433 98.3778 38.2597ZM98.1396 41.1055V38.8566H98.3638V41.1055H98.1396Z" fill="#4E13A3"/>
<path d="M100.024 41.154C99.8683 41.1573 99.7135 41.1289 99.569 41.0706C99.4245 41.0123 99.2933 40.9253 99.1834 40.8149C98.9627 40.5933 98.8389 40.2932 98.8389 39.9805C98.8389 39.6677 98.9627 39.3677 99.1834 39.1461C99.4072 38.9278 99.7074 38.8057 100.02 38.8057C100.332 38.8057 100.633 38.9278 100.856 39.1461C101.077 39.3677 101.201 39.6677 101.201 39.9805C101.201 40.2932 101.077 40.5933 100.856 40.8149C100.748 40.9246 100.618 41.0111 100.475 41.0694C100.332 41.1277 100.179 41.1564 100.024 41.154ZM99.346 40.6593C99.4336 40.7502 99.5391 40.822 99.6558 40.8702C99.7725 40.9184 99.8979 40.942 100.024 40.9396C100.15 40.9421 100.275 40.9185 100.391 40.8703C100.507 40.8221 100.611 40.7502 100.698 40.6593C100.874 40.4767 100.972 40.2331 100.972 39.9798C100.972 39.7264 100.874 39.4829 100.698 39.3002C100.611 39.2095 100.506 39.1378 100.39 39.0896C100.274 39.0414 100.15 39.0177 100.024 39.02C99.8979 39.0178 99.7727 39.0416 99.656 39.0898C99.5394 39.138 99.4338 39.2096 99.346 39.3002C99.1704 39.4829 99.0724 39.7264 99.0724 39.9798C99.0724 40.2331 99.1704 40.4767 99.346 40.6593Z" fill="#4E13A3"/>
<path d="M102.709 38.8057C102.826 38.7999 102.943 38.8187 103.053 38.861C103.162 38.9032 103.262 38.9679 103.345 39.0509C103.426 39.1391 103.488 39.2422 103.529 39.3545C103.569 39.4668 103.587 39.586 103.582 39.7053V41.1065H103.352V39.7053C103.361 39.5227 103.299 39.3437 103.178 39.2065C103.115 39.1428 103.038 39.0934 102.954 39.0615C102.87 39.0296 102.78 39.0159 102.691 39.0215C102.586 39.0186 102.483 39.0376 102.386 39.0771C102.29 39.1167 102.202 39.176 102.13 39.2513C101.972 39.4354 101.892 39.6745 101.909 39.9169V41.1051H101.685V38.8562H101.909V39.2835C101.98 39.1339 102.094 39.0086 102.237 38.9236C102.379 38.8386 102.543 38.7976 102.709 38.8057Z" fill="#4E13A3"/>
<path d="M104.534 40.7988L104.291 41.7348H104.084L104.255 40.7988H104.534Z" fill="#4E13A3"/>
<path d="M107.345 37.9564C107.475 37.9529 107.604 37.9759 107.724 38.0241C107.845 38.0723 107.954 38.1446 108.046 38.2366C108.224 38.4241 108.324 38.6732 108.324 38.9323C108.324 39.1914 108.224 39.4406 108.046 39.628C107.954 39.7198 107.845 39.792 107.724 39.8402C107.604 39.8884 107.475 39.9116 107.345 39.9083H106.514V41.1091H106.274V37.9564H107.345ZM107.345 39.6785C107.444 39.6818 107.542 39.6647 107.634 39.6283C107.726 39.5919 107.809 39.5369 107.879 39.4669C107.948 39.3964 108.002 39.3126 108.038 39.2206C108.074 39.1286 108.091 39.0303 108.088 38.9316C108.091 38.8323 108.074 38.7333 108.038 38.6406C108.002 38.5479 107.948 38.4634 107.879 38.3922C107.809 38.3221 107.726 38.2672 107.634 38.2308C107.542 38.1944 107.444 38.1773 107.345 38.1806H106.514V39.6785H107.345Z" fill="#4E13A3"/>
<path d="M109.638 38.8062C109.79 38.8012 109.941 38.8302 110.08 38.891C110.219 38.9519 110.342 39.0431 110.441 39.1579C110.645 39.3863 110.755 39.6829 110.749 39.9888C110.749 40.0014 110.749 40.0197 110.749 40.0435C110.749 40.0673 110.749 40.0855 110.749 40.0981H108.712C108.73 40.3327 108.839 40.5509 109.016 40.7062C109.195 40.8631 109.427 40.9462 109.665 40.9388C109.829 40.9425 109.992 40.9039 110.137 40.8267C110.266 40.7589 110.372 40.6558 110.444 40.5297L110.642 40.646C110.547 40.804 110.41 40.9326 110.246 41.0173C110.066 41.112 109.865 41.1602 109.661 41.1574C109.504 41.1628 109.348 41.1362 109.202 41.0794C109.056 41.0225 108.923 40.9366 108.812 40.8267C108.701 40.7169 108.615 40.5857 108.558 40.441C108.5 40.2964 108.473 40.1415 108.478 39.986C108.474 39.8312 108.5 39.677 108.556 39.5326C108.612 39.3881 108.697 39.2565 108.805 39.1453C108.913 39.0342 109.042 38.9468 109.186 38.8884C109.329 38.8301 109.483 38.8021 109.638 38.8062ZM109.638 39.022C109.403 39.0151 109.174 39.1011 109.001 39.2616C108.829 39.4222 108.724 39.642 108.708 39.8767H110.518C110.508 39.6394 110.408 39.4149 110.238 39.249C110.075 39.0981 109.86 39.0167 109.638 39.022Z" fill="#4E13A3"/>
<path d="M111.438 39.2965C111.497 39.148 111.601 39.022 111.736 38.9371C111.871 38.8521 112.03 38.8126 112.189 38.8243V39.0401C111.991 39.035 111.799 39.1085 111.654 39.2446C111.578 39.3259 111.52 39.422 111.483 39.5269C111.445 39.6318 111.43 39.7432 111.438 39.8541V41.1054H111.22V38.8565H111.444L111.438 39.2965Z" fill="#4E13A3"/>
<path d="M113.642 38.1217C113.195 38.0867 112.972 38.2899 112.972 38.7341V38.856H113.642V39.076H112.972V41.1049H112.742V39.076H112.355V38.856H112.742V38.7341C112.734 38.617 112.75 38.4994 112.79 38.389C112.83 38.2786 112.893 38.178 112.975 38.0937C113.066 38.0168 113.173 37.9603 113.288 37.9279C113.403 37.8956 113.524 37.8881 113.642 37.906V38.1217Z" fill="#4E13A3"/>
<path d="M114.79 38.8062C114.941 38.8014 115.092 38.8305 115.231 38.8914C115.37 38.9522 115.493 39.0433 115.592 39.1579C115.795 39.3866 115.905 39.683 115.901 39.9888C115.901 40.0014 115.901 40.0196 115.901 40.0434C115.901 40.0672 115.901 40.0854 115.901 40.0981H113.863C113.883 40.3323 113.992 40.5501 114.167 40.7062C114.347 40.863 114.579 40.9461 114.818 40.9388C114.982 40.9421 115.145 40.9035 115.29 40.8267C115.418 40.7583 115.523 40.6554 115.595 40.5296L115.793 40.6459C115.698 40.804 115.561 40.9326 115.398 41.0172C115.218 41.1118 115.017 41.1599 114.813 41.1574C114.657 41.1628 114.5 41.1363 114.354 41.0795C114.208 41.0226 114.075 40.9366 113.963 40.8267C113.853 40.7167 113.767 40.5854 113.709 40.4408C113.652 40.2962 113.625 40.1414 113.629 39.986C113.625 39.8311 113.651 39.6769 113.707 39.5325C113.763 39.3881 113.848 39.2564 113.956 39.1452C114.064 39.0342 114.194 38.9467 114.337 38.8884C114.481 38.83 114.635 38.802 114.79 38.8062ZM114.79 39.0219C114.553 39.0148 114.324 39.1009 114.151 39.2615C113.979 39.4221 113.874 39.6419 113.858 39.8767H115.667C115.657 39.6392 115.557 39.4145 115.387 39.2489C115.225 39.0987 115.01 39.0173 114.79 39.0219Z" fill="#4E13A3"/>
<path d="M117.393 41.154C117.213 41.1525 117.036 41.1098 116.876 41.0292C116.715 40.9486 116.576 40.8324 116.467 40.6893C116.359 40.5463 116.284 40.3803 116.25 40.204C116.216 40.0278 116.222 39.8461 116.269 39.6728C116.316 39.4995 116.402 39.3393 116.521 39.2045C116.639 39.0697 116.787 38.9638 116.953 38.8951C117.119 38.8264 117.298 38.7966 117.478 38.8081C117.657 38.8195 117.831 38.8719 117.987 38.9611C118.156 39.0574 118.292 39.2044 118.373 39.3815L118.188 39.4894C118.123 39.3454 118.014 39.2257 117.876 39.1475C117.729 39.0621 117.562 39.0184 117.393 39.0214C117.266 39.0188 117.141 39.0423 117.024 39.0906C116.907 39.1388 116.802 39.2107 116.714 39.3016C116.538 39.4845 116.439 39.7286 116.439 39.9826C116.439 40.2366 116.538 40.4808 116.714 40.6636C116.802 40.7546 116.907 40.8264 117.024 40.8747C117.141 40.9229 117.266 40.9465 117.393 40.9438C117.562 40.9468 117.729 40.9032 117.876 40.8177C118.015 40.7373 118.129 40.6187 118.202 40.4758L118.392 40.5879C118.301 40.7642 118.162 40.9104 117.989 41.0083C117.807 41.1093 117.601 41.1596 117.393 41.154Z" fill="#4E13A3"/>
<path d="M119.975 39.0762H119.305V40.5377C119.297 40.6365 119.322 40.7354 119.377 40.8179C119.405 40.8483 119.439 40.8726 119.477 40.8893C119.515 40.9059 119.556 40.9145 119.597 40.9146C119.723 40.9221 119.85 40.9183 119.975 40.9034V41.1066C119.673 41.1514 119.447 41.1304 119.298 41.0435C119.15 40.9566 119.076 40.7885 119.076 40.5391V39.0762H118.581V38.8562H119.076V38.2958L119.305 38.2285V38.8591H119.975V39.0762Z" fill="#4E13A3"/>
<path d="M120.451 41.1057V37.8213H120.675V41.1057H120.451Z" fill="#4E13A3"/>
<path d="M122.953 38.8559H123.195L122.224 41.3108C122.15 41.515 122.023 41.6958 121.856 41.8348C121.711 41.9575 121.523 42.0184 121.333 42.0044V41.7914C121.403 41.7975 121.473 41.7897 121.54 41.7686C121.607 41.7474 121.669 41.7133 121.723 41.6681C121.847 41.5582 121.944 41.4197 122.003 41.2645L122.051 41.1412L121.017 38.8545H121.26L122.167 40.8484L122.953 38.8559Z" fill="#4E13A3"/>
<path d="M125.682 41.1545C125.421 41.1623 125.164 41.0925 124.942 40.9541C124.745 40.8275 124.6 40.6355 124.53 40.4119L124.738 40.2914C124.79 40.4786 124.905 40.642 125.064 40.7538C125.247 40.8749 125.463 40.9347 125.682 40.9247C125.892 40.9385 126.101 40.8764 126.269 40.7495C126.335 40.6941 126.388 40.6245 126.423 40.5459C126.459 40.4673 126.476 40.3818 126.474 40.2956C126.478 40.2175 126.461 40.1397 126.427 40.0696C126.392 39.9995 126.34 39.9393 126.276 39.8948C126.085 39.7721 125.878 39.6777 125.66 39.6146L125.438 39.5333L125.238 39.4605C125.17 39.4376 125.105 39.4081 125.043 39.3722C125.001 39.3456 124.952 39.3091 124.893 39.2643C124.842 39.2262 124.798 39.1786 124.764 39.1242C124.735 39.0712 124.711 39.0153 124.693 38.9574C124.671 38.8886 124.66 38.8167 124.661 38.7444C124.657 38.6275 124.681 38.5114 124.729 38.405C124.778 38.2986 124.85 38.2047 124.941 38.1307C125.131 37.9719 125.374 37.8891 125.622 37.8981C125.846 37.8917 126.066 37.9564 126.251 38.0831C126.422 38.2049 126.555 38.3738 126.632 38.5693L126.43 38.6814C126.372 38.5153 126.262 38.3726 126.116 38.2746C125.97 38.1765 125.796 38.1285 125.62 38.1377C125.433 38.1283 125.248 38.1893 125.103 38.3087C125.041 38.3626 124.991 38.4297 124.958 38.505C124.925 38.5803 124.908 38.6621 124.91 38.7444C124.905 38.8188 124.919 38.8932 124.95 38.9606C124.982 39.028 125.03 39.0863 125.091 39.1298C125.275 39.2429 125.473 39.3305 125.681 39.3904L126.086 39.5417C126.196 39.5847 126.302 39.6387 126.402 39.7029C126.505 39.7631 126.59 39.8503 126.647 39.9551C126.7 40.0608 126.726 40.1776 126.723 40.2956C126.728 40.4145 126.705 40.5329 126.656 40.6416C126.608 40.7502 126.535 40.8462 126.443 40.9219C126.226 41.0891 125.955 41.1718 125.682 41.1545Z" fill="#4E13A3"/>
<path d="M128.749 38.8559H128.993L128.021 41.3108C127.947 41.5153 127.82 41.6963 127.652 41.8348C127.508 41.9577 127.32 42.0186 127.131 42.0044V41.7914C127.201 41.7975 127.271 41.7897 127.338 41.7685C127.404 41.7474 127.466 41.7132 127.519 41.6681C127.645 41.559 127.741 41.4203 127.799 41.2645L127.849 41.1412L126.814 38.8545H127.053L127.959 40.8484L128.749 38.8559Z" fill="#4E13A3"/>
<path d="M130.365 38.8057C130.482 38.7999 130.599 38.8187 130.709 38.861C130.818 38.9032 130.918 38.9679 131.001 39.0509C131.081 39.1392 131.143 39.2424 131.184 39.3547C131.224 39.467 131.242 39.5861 131.236 39.7053V41.1065H131.008V39.7053C131.017 39.5227 130.955 39.3437 130.834 39.2065C130.771 39.1428 130.694 39.0934 130.61 39.0615C130.526 39.0296 130.436 39.0159 130.346 39.0215C130.242 39.019 130.139 39.0381 130.042 39.0776C129.946 39.1172 129.858 39.1763 129.786 39.2513C129.629 39.436 129.55 39.6748 129.566 39.9169V41.1051H129.342V38.8562H129.566V39.2835C129.637 39.1341 129.751 39.009 129.893 38.924C130.035 38.839 130.199 38.7979 130.365 38.8057Z" fill="#4E13A3"/>
<path d="M132.838 41.1542C132.527 41.1542 132.228 41.0304 132.008 40.8102C131.788 40.59 131.664 40.2914 131.664 39.98C131.664 39.6685 131.788 39.3699 132.008 39.1497C132.228 38.9295 132.527 38.8058 132.838 38.8058C133.047 38.803 133.252 38.8567 133.432 38.9613C133.602 39.0576 133.737 39.2046 133.819 39.3817L133.634 39.4895C133.569 39.3455 133.459 39.2259 133.322 39.1477C133.175 39.0622 133.008 39.0186 132.838 39.0215C132.712 39.0189 132.587 39.0425 132.47 39.0907C132.353 39.1389 132.248 39.2108 132.16 39.3018C131.984 39.4846 131.885 39.7287 131.885 39.9828C131.885 40.2368 131.984 40.4809 132.16 40.6637C132.248 40.7547 132.353 40.8266 132.47 40.8748C132.587 40.9231 132.712 40.9466 132.838 40.944C133.008 40.9469 133.175 40.9033 133.322 40.8179C133.461 40.7375 133.574 40.6188 133.648 40.476L133.837 40.5881C133.747 40.7644 133.607 40.9105 133.435 41.0084C133.253 41.1093 133.047 41.1596 132.838 41.1542Z" fill="#4E13A3"/>
<path d="M135.299 38.8062C135.416 38.8003 135.533 38.8191 135.643 38.8614C135.752 38.9036 135.852 38.9683 135.935 39.0514C136.016 39.1393 136.078 39.2425 136.119 39.3548C136.159 39.4671 136.177 39.5864 136.172 39.7057V41.1069H135.942V39.7057C135.951 39.5231 135.889 39.3441 135.768 39.2069C135.705 39.1432 135.628 39.0938 135.544 39.0619C135.46 39.03 135.37 39.0164 135.28 39.0219C135.176 39.0192 135.073 39.0383 134.976 39.0778C134.88 39.1174 134.792 39.1766 134.72 39.2517C134.562 39.4358 134.482 39.675 134.499 39.9173V41.1055H134.274V37.957H134.499V39.284C134.57 39.1343 134.684 39.0091 134.826 38.9241C134.969 38.839 135.133 38.798 135.299 38.8062Z" fill="#4E13A3"/>
<path d="M136.968 39.2965C137.026 39.1479 137.13 39.0218 137.266 38.9369C137.401 38.8519 137.56 38.8124 137.719 38.8243V39.0401C137.52 39.0349 137.328 39.1085 137.184 39.2447C137.107 39.3258 137.049 39.4219 137.012 39.5268C136.974 39.6317 136.96 39.7432 136.968 39.8542V41.1055H136.742V38.8566H136.968V39.2965Z" fill="#4E13A3"/>
<path d="M139.004 41.154C138.849 41.1571 138.694 41.1287 138.549 41.0704C138.405 41.0121 138.274 40.9252 138.164 40.8149C137.944 40.5929 137.82 40.293 137.82 39.9805C137.82 39.6679 137.944 39.3681 138.164 39.1461C138.387 38.9278 138.688 38.8057 139 38.8057C139.313 38.8057 139.613 38.9278 139.837 39.1461C140.057 39.3677 140.181 39.6677 140.181 39.9805C140.181 40.2932 140.057 40.5933 139.837 40.8149C139.728 40.9247 139.598 41.0114 139.455 41.0696C139.312 41.1279 139.159 41.1566 139.004 41.154ZM138.328 40.6593C138.507 40.8381 138.75 40.9384 139.004 40.9384C139.257 40.9384 139.5 40.8381 139.68 40.6593C139.855 40.4767 139.953 40.2331 139.953 39.9798C139.953 39.7264 139.855 39.4829 139.68 39.3002C139.5 39.1214 139.257 39.0211 139.004 39.0211C138.75 39.0211 138.507 39.1214 138.328 39.3002C138.152 39.4829 138.054 39.7264 138.054 39.9798C138.054 40.2331 138.152 40.4767 138.328 40.6593Z" fill="#4E13A3"/>
<path d="M141.689 38.8057C141.807 38.7999 141.924 38.8187 142.033 38.861C142.143 38.9032 142.242 38.9679 142.325 39.0509C142.406 39.1389 142.469 39.242 142.509 39.3544C142.55 39.4667 142.568 39.586 142.562 39.7053V41.1065H142.332V39.7053C142.342 39.5229 142.28 39.3439 142.16 39.2065C142.096 39.1429 142.02 39.0936 141.935 39.0617C141.851 39.0298 141.761 39.0161 141.671 39.0215C141.567 39.0189 141.463 39.0379 141.367 39.0775C141.27 39.1171 141.183 39.1762 141.111 39.2513C140.953 39.4356 140.874 39.6747 140.891 39.9169V41.1051H140.665V38.8562H140.891V39.2835C140.962 39.1341 141.076 39.009 141.218 38.924C141.36 38.839 141.524 38.7979 141.689 38.8057Z" fill="#4E13A3"/>
<path d="M143.372 38.2597C143.338 38.2929 143.293 38.3115 143.246 38.3115C143.199 38.3115 143.153 38.2929 143.12 38.2597C143.102 38.2434 143.088 38.2237 143.079 38.2017C143.07 38.1797 143.066 38.156 143.066 38.1322C143.066 38.109 143.07 38.086 143.08 38.0647C143.089 38.0434 143.103 38.0244 143.12 38.0088C143.153 37.9756 143.199 37.957 143.246 37.957C143.293 37.957 143.338 37.9756 143.372 38.0088C143.389 38.0246 143.402 38.0437 143.412 38.0649C143.421 38.0861 143.425 38.109 143.425 38.1322C143.426 38.1559 143.421 38.1796 143.412 38.2015C143.403 38.2235 143.389 38.2433 143.372 38.2597ZM143.134 41.1055V38.8566H143.358V41.1055H143.134Z" fill="#4E13A3"/>
<path d="M144.209 40.8837H145.599V41.1051H143.881V40.951L145.229 39.0706H143.926V38.8506H145.548V39.0019L144.209 40.8837Z" fill="#4E13A3"/>
<path d="M146.95 38.8062C147.101 38.8014 147.252 38.8305 147.391 38.8914C147.53 38.9522 147.653 39.0433 147.753 39.1579C147.956 39.3866 148.066 39.683 148.061 39.9888C148.061 40.0014 148.061 40.0196 148.061 40.0434C148.061 40.0672 148.061 40.0854 148.061 40.0981H146.024C146.043 40.3323 146.152 40.5501 146.328 40.7062C146.507 40.863 146.74 40.9461 146.978 40.9388C147.142 40.9421 147.305 40.9035 147.45 40.8267C147.578 40.7583 147.684 40.6554 147.756 40.5296L147.953 40.6459C147.858 40.804 147.722 40.9326 147.558 41.0172C147.378 41.1118 147.177 41.1599 146.974 41.1574C146.817 41.1628 146.661 41.1363 146.514 41.0795C146.368 41.0226 146.235 40.9366 146.123 40.8267C146.013 40.7169 145.926 40.5856 145.869 40.441C145.812 40.2963 145.785 40.1415 145.79 39.986C145.785 39.8311 145.812 39.6769 145.868 39.5325C145.924 39.3881 146.008 39.2564 146.116 39.1452C146.224 39.0342 146.354 38.9467 146.497 38.8884C146.641 38.83 146.795 38.802 146.95 38.8062ZM146.95 39.0219C146.714 39.0148 146.484 39.1009 146.311 39.2615C146.139 39.4221 146.034 39.6419 146.018 39.8767H147.827C147.818 39.6392 147.717 39.4145 147.547 39.2489C147.385 39.0987 147.171 39.0173 146.95 39.0219Z" fill="#4E13A3"/>
<path d="M150.506 37.957H150.73V41.1055H150.506V40.5829C150.416 40.7567 150.28 40.9021 150.113 41.0032C149.939 41.1057 149.741 41.1585 149.539 41.1559C149.228 41.1559 148.929 41.0322 148.709 40.812C148.489 40.5918 148.365 40.2932 148.365 39.9817C148.365 39.6703 148.489 39.3717 148.709 39.1515C148.929 38.9313 149.228 38.8076 149.539 38.8076C149.741 38.805 149.939 38.8578 150.113 38.9603C150.28 39.0613 150.416 39.2068 150.506 39.3806V37.957ZM148.875 40.6599C149.055 40.8384 149.299 40.9386 149.552 40.9386C149.806 40.9386 150.049 40.8384 150.229 40.6599C150.407 40.4784 150.506 40.2344 150.506 39.9803C150.506 39.7262 150.407 39.4823 150.229 39.3008C150.049 39.1223 149.806 39.0221 149.552 39.0221C149.299 39.0221 149.055 39.1223 148.875 39.3008C148.7 39.4835 148.602 39.727 148.602 39.9803C148.602 40.2337 148.7 40.4772 148.875 40.6599Z" fill="#4E13A3"/>
<path d="M123.351 23.3902C122.122 24.6286 121.431 26.3017 121.428 28.0464C121.412 29.273 121.745 30.479 122.388 31.5235C123.032 32.568 123.959 33.408 125.062 33.9454C126.16 34.5024 127.392 34.741 128.618 34.634C129.845 34.527 131.017 34.0788 132.002 33.34L132.96 32.6212V34.6712H134.665V13.9336H132.96V21.4328H128.048C127.174 21.4322 126.309 21.6049 125.503 21.941C124.697 22.277 123.965 22.7695 123.351 23.3902ZM132.96 28.0464C132.964 28.7035 132.836 29.3546 132.583 29.9612C132.33 30.5678 131.958 31.1174 131.489 31.5774C130.595 32.4643 129.385 32.961 128.126 32.9589H128.042C126.739 32.9574 125.49 32.4384 124.57 31.5161C123.65 30.5938 123.133 29.3436 123.135 28.0408C123.136 26.7379 123.655 25.4889 124.578 24.5687C125.5 23.6485 126.75 23.1323 128.053 23.1338H132.966L132.96 28.0464Z" fill="#4E13A3"/>
<path d="M137.73 28.5411V21.4287H136.021V28.5299C136.021 29.3381 136.181 30.1382 136.49 30.8847C136.8 31.6312 137.254 32.3093 137.825 32.8805C138.397 33.4516 139.076 33.9045 139.823 34.2133C140.57 34.5222 141.37 34.6809 142.178 34.6804C142.986 34.68 143.786 34.5203 144.533 34.2107C145.279 33.901 145.957 33.4473 146.529 32.8755C147.1 32.3037 147.553 31.625 147.861 30.8782C148.17 30.1314 148.329 29.3311 148.329 28.5229V21.4287H146.627V28.5299C146.6 29.6905 146.12 30.7944 145.29 31.606C144.46 32.4176 143.345 32.8727 142.184 32.8742C141.023 32.8756 139.908 32.4234 139.076 31.6139C138.243 30.8043 137.761 29.7017 137.73 28.5411Z" fill="#4E13A3"/>
<path d="M150.73 32.8789H149.024V34.5842H150.73V32.8789Z" fill="#30D9EF"/>
<path d="M109.984 32.9156H121.737V34.597H108.204V11.0879H121.569V12.7693H109.984V21.8953H120.729V23.5767H109.984V32.9156Z" fill="#4E13A3"/>
<path d="M7.6392 28.2704C3.09514 25.3587 2.41837 19.2509 5.73779 15.151C6.63455 14.0427 18.6497 2.34559 18.6609 2.3554L16.0561 0L9.89091 6.08116C4.94191 10.9657 -2.86971 17.6914 1.07603 25.5773C4.29876 32.0227 11.6676 35.3856 18.2938 31.7425C19.652 30.9704 20.8969 30.0142 21.993 28.9009L18.4143 27.6132C15.2953 29.8453 10.9124 30.3679 7.6392 28.2704Z" fill="url(#paint0_linear_776_9296)"/>
<path d="M7.37082 20.087C7.19195 21.1141 7.3269 22.1713 7.75808 23.1205C8.18925 24.0698 8.89661 24.867 9.7878 25.4081C10.679 25.9491 11.7126 26.2089 12.7537 26.1536C13.7948 26.0982 14.7951 25.7302 15.6238 25.0976C16.9045 24.1252 17.7746 22.5377 19.3075 22.05C19.7825 21.9001 20.3388 21.8833 20.741 22.1776C20.979 22.3636 21.1505 22.6217 21.23 22.9132C21.52 23.8604 21.066 24.8818 20.4579 25.6637C20.4201 25.7113 20.3809 25.7576 20.343 25.8038L23.612 26.9808C24.0903 26.3116 24.4715 25.5781 24.7442 24.802C25.4854 22.5741 24.0351 19.9707 22.0062 18.9744C19.9381 17.96 17.252 18.4658 15.6322 20.1052C15.0339 20.7133 14.5673 21.4545 13.8962 21.98C13.225 22.5054 12.2259 22.7675 11.5253 22.2798C10.2306 21.3747 11.1414 19.7269 11.9303 18.8413C11.9947 18.7685 12.0592 18.7012 12.1265 18.6269L8.57444 17.3477C7.99575 18.18 7.54177 19.0921 7.37082 20.087Z" fill="url(#paint1_linear_776_9296)"/>
<path d="M27.0958 14.0355C21.889 10.0309 14.7191 11.0621 10.2129 15.4366L14.2063 16.8743C16.0376 15.6678 18.2053 14.9869 20.3855 15.1102C24.7586 15.3596 28.2322 19.1092 28.4395 23.436C28.56 25.9498 27.5988 27.9352 25.9258 29.7133C23.6251 32.1551 21.2701 34.5465 18.861 36.8874C18.4126 37.3232 13.3894 42.0088 13.4426 42.0718L16.0474 44.6738C18.7783 41.9751 21.5121 39.2484 24.2962 36.5778C27.4839 33.519 31.5586 29.8675 31.9803 25.2281C32.3601 21.054 30.4208 16.5912 27.0958 14.0355Z" fill="url(#paint2_linear_776_9296)"/>
</g>
<defs>
<linearGradient id="paint0_linear_776_9296" x1="4.31978" y1="16.1389" x2="20.4433" y2="16.9264" gradientUnits="userSpaceOnUse">
<stop stop-color="#30D9EF"/>
<stop offset="0.21" stop-color="#29D8E6"/>
<stop offset="0.46" stop-color="#1DD6D5"/>
<stop offset="0.56" stop-color="#39C2DE"/>
<stop offset="0.79" stop-color="#8090F3"/>
<stop offset="0.9" stop-color="#A576FF"/>
</linearGradient>
<linearGradient id="paint1_linear_776_9296" x1="4.05421" y1="21.5764" x2="20.1791" y2="22.3639" gradientUnits="userSpaceOnUse">
<stop stop-color="#30D9EF"/>
<stop offset="0.21" stop-color="#29D8E6"/>
<stop offset="0.46" stop-color="#1DD6D5"/>
<stop offset="0.56" stop-color="#39C2DE"/>
<stop offset="0.79" stop-color="#8090F3"/>
<stop offset="0.9" stop-color="#A576FF"/>
</linearGradient>
<linearGradient id="paint2_linear_776_9296" x1="3.76883" y1="27.4042" x2="19.8937" y2="28.1903" gradientUnits="userSpaceOnUse">
<stop stop-color="#30D9EF"/>
<stop offset="0.21" stop-color="#29D8E6"/>
<stop offset="0.46" stop-color="#1DD6D5"/>
<stop offset="0.56" stop-color="#39C2DE"/>
<stop offset="0.79" stop-color="#8090F3"/>
<stop offset="0.9" stop-color="#A576FF"/>
</linearGradient>
<clipPath id="clip0_776_9296">
<rect width="150.73" height="44.6699" fill="white"/>
</clipPath>
</defs>
</svg>
